<?xml version="1.0" encoding="UTF-8"?>
<svg version="1.1" xmlns="http://www.w3.org/2000/svg" width="480" height="270">
<path d="M0 0 C158.4 0 316.8 0 480 0 C480 89.1 480 178.2 480 270 C321.6 270 163.2 270 0 270 C0 180.9 0 91.8 0 0 Z " fill="#293846" transform="translate(0,0)"/>
<path d="M0 0 C0.88895462 -0.00637985 1.77790924 -0.0127597 2.69380188 -0.01933289 C3.64587021 -0.02044571 4.59793854 -0.02155853 5.57885742 -0.02270508 C6.57705002 -0.02603348 7.57524261 -0.02936188 8.60368347 -0.03279114 C10.71934551 -0.03784979 12.83501551 -0.04019979 14.95068359 -0.04003906 C18.13482495 -0.04220269 21.3186065 -0.06030601 24.50268555 -0.0793457 C45.27432075 -0.13769956 62.08470608 1.53378199 80.37182617 12.14526367 C78.37182617 13.14526367 78.37182617 13.14526367 75.99755859 12.46240234 C75.02149658 12.10380127 74.04543457 11.7452002 73.03979492 11.37573242 C66.66202647 9.16288186 60.30720994 7.72061888 53.68432617 6.45776367 C52.62149414 6.24571289 51.55866211 6.03366211 50.46362305 5.81518555 C39.87338257 3.74417615 29.59003597 2.94669466 18.80932617 2.58276367 C17.60985352 2.53958008 16.41038086 2.49639648 15.17456055 2.4519043 C12.24040824 2.34669565 9.30618367 2.24455485 6.37182617 2.14526367 C6.37182617 2.80526367 6.37182617 3.46526367 6.37182617 4.14526367 C7.10530273 4.41725586 7.8387793 4.68924805 8.59448242 4.96948242 C11.24442361 6.09132813 13.43016528 7.35045177 15.80932617 8.95776367 C16.52991211 9.43858398 17.25049805 9.9194043 17.99291992 10.41479492 C20.37182617 12.14526367 20.37182617 12.14526367 22.78076172 14.69775391 C27.29805331 18.45097936 32.58292067 17.96018973 38.20776367 18.03588867 C39.93598862 18.08830719 39.93598862 18.08830719 41.6991272 18.14178467 C45.38148993 18.24881003 49.06363402 18.32294022 52.74682617 18.39526367 C55.18568759 18.4581059 57.62449239 18.52318778 60.06323242 18.59057617 C63.61255837 18.68798292 67.16186561 18.7847133 70.71136475 18.87561035 C77.07317873 19.04059076 83.43106926 19.22051732 89.78588867 19.56713867 C90.9636084 19.62998047 92.14132812 19.69282227 93.35473633 19.75756836 C96.39289346 20.14797081 98.65749884 20.73331048 101.37182617 22.14526367 C102.36182617 23.63026367 102.36182617 23.63026367 103.37182617 25.14526367 C102.71182617 25.14526367 102.05182617 25.14526367 101.37182617 25.14526367 C102.27534162 30.08131124 103.63598058 34.88178604 104.9987793 39.70581055 C105.90934939 43.02455502 106.37182617 45.66863586 106.37182617 49.14526367 C107.03182617 49.14526367 107.69182617 49.14526367 108.37182617 49.14526367 C110.94373613 58.78992601 109.10420435 69.49344242 107.37182617 79.14526367 C106.38182617 79.47526367 105.39182617 79.80526367 104.37182617 80.14526367 C104.37182617 75.85526367 104.37182617 71.56526367 104.37182617 67.14526367 C98.48999077 67.26577562 92.60825097 67.39009652 86.7265625 67.51757812 C84.73602345 67.56022911 82.74546384 67.60193371 80.75488281 67.64257812 C74.93098862 67.76185383 69.10865553 67.90882046 63.28594971 68.07611084 C60.36026753 68.14553796 57.43639691 68.17137554 54.51000977 68.19262695 C52.64491769 68.22919543 50.77984466 68.26675212 48.91479492 68.30541992 C48.07040359 68.30062119 47.22601227 68.29582245 46.35603333 68.2908783 C40.62316018 68.45486196 37.47974977 69.95095559 33.12545776 73.68032837 C27.85232901 78.08535421 22.45527182 78.56544151 15.93432617 78.33276367 C15.2027832 78.31922852 14.47124023 78.30569336 13.7175293 78.29174805 C11.93530195 78.25680241 10.15346044 78.20301172 8.37182617 78.14526367 C8.21101563 77.5708252 8.05020508 76.99638672 7.88452148 76.40454102 C7.14120024 73.77322621 6.38167359 71.14685162 5.62182617 68.52026367 C5.36916992 67.61663086 5.11651367 66.71299805 4.85620117 65.78198242 C3.33559591 60.57390941 1.76544937 56.40798549 -1.62817383 52.14526367 C-4.35659444 50.78105337 -6.23770701 51.26719156 -9.25317383 51.58276367 C-10.75750977 51.73551758 -10.75750977 51.73551758 -12.29223633 51.89135742 C-13.0630957 51.97514648 -13.83395508 52.05893555 -14.62817383 52.14526367 C-17.62847314 59.43170487 -18.92846547 65.53921629 -19.28442383 73.41479492 C-19.39786133 74.31584961 -19.51129883 75.2169043 -19.62817383 76.14526367 C-20.61817383 76.64026367 -20.61817383 76.64026367 -21.62817383 77.14526367 C-21.95817383 78.79526367 -22.28817383 80.44526367 -22.62817383 82.14526367 C-38.96317383 82.64026367 -38.96317383 82.64026367 -55.62817383 83.14526367 C-55.29817383 81.49526367 -54.96817383 79.84526367 -54.62817383 78.14526367 C-45.47252611 77.79610762 -36.66857166 78.8748439 -27.62817383 80.14526367 C-27.62817383 78.49526367 -27.62817383 76.84526367 -27.62817383 75.14526367 C-26.96817383 75.14526367 -26.30817383 75.14526367 -25.62817383 75.14526367 C-25.62817383 72.17526367 -25.62817383 69.20526367 -25.62817383 66.14526367 C-26.28817383 66.14526367 -26.94817383 66.14526367 -27.62817383 66.14526367 C-27.62817383 68.78526367 -27.62817383 71.42526367 -27.62817383 74.14526367 C-37.0568726 75.46894708 -46.18474001 74.86486883 -55.62817383 74.14526367 C-55.62817383 72.16526367 -55.62817383 70.18526367 -55.62817383 68.14526367 C-50.34817383 68.14526367 -45.06817383 68.14526367 -39.62817383 68.14526367 C-39.29817383 67.48526367 -38.96817383 66.82526367 -38.62817383 66.14526367 C-38.29817383 67.13526367 -37.96817383 68.12526367 -37.62817383 69.14526367 C-37.60311768 68.37859375 -37.57806152 67.61192383 -37.55224609 66.82202148 C-37.4361596 63.34627084 -37.31349017 59.87078275 -37.19067383 56.39526367 C-37.15135742 55.18870117 -37.11204102 53.98213867 -37.0715332 52.73901367 C-37.02963867 51.57885742 -36.98774414 50.41870117 -36.94458008 49.22338867 C-36.90792236 48.15507812 -36.87126465 47.08676758 -36.83349609 45.98608398 C-36.65830473 43.56215215 -36.31618895 41.46639655 -35.62817383 39.14526367 C-38.93123975 38.0442417 -40.34403078 38.19459068 -43.62817383 39.14526367 C-43.95817383 39.80526367 -44.28817383 40.46526367 -44.62817383 41.14526367 C-47.15447769 41.96058435 -49.61679219 42.64699189 -52.19067383 43.27026367 C-52.88225586 43.45202148 -53.57383789 43.6337793 -54.28637695 43.82104492 C-59.18090035 45.03441233 -63.58864276 45.31532659 -68.62817383 45.14526367 C-66.11750914 42.08619441 -63.7275745 41.3933509 -59.94067383 40.45776367 C-58.94680664 40.20639648 -57.95293945 39.9550293 -56.92895508 39.69604492 C-56.16969727 39.51428711 -55.41043945 39.3325293 -54.62817383 39.14526367 C-55.12317383 37.66026367 -55.12317383 37.66026367 -55.62817383 36.14526367 C-54.89703369 35.94368652 -54.16589355 35.74210937 -53.41259766 35.53442383 C-50.08780103 34.61598338 -46.76423357 33.69316952 -43.44067383 32.77026367 C-42.29018555 32.4531543 -41.13969727 32.13604492 -39.9543457 31.80932617 C-38.28662109 31.34526367 -38.28662109 31.34526367 -36.58520508 30.87182617 C-35.56402588 30.58903809 -34.54284668 30.30625 -33.49072266 30.01489258 C-30.79375683 29.19556701 -28.23934345 28.20061706 -25.62817383 27.14526367 C-23.79681591 26.67909984 -21.96473412 26.21549041 -20.12817383 25.77026367 C-11.32697409 23.56996374 -2.77278879 21.19602455 5.37182617 17.14526367 C3.92166423 13.5119775 2.14990301 12.02784791 -1.12817383 9.95776367 C-1.92223633 9.44858398 -2.71629883 8.9394043 -3.53442383 8.41479492 C-9.48599991 4.80609674 -16.11895174 5.66281468 -22.75317383 7.14526367 C-24.04759165 7.46774839 -25.34047903 7.79690179 -26.62817383 8.14526367 C-23.93833341 5.45542325 -20.85403741 4.71949249 -17.31567383 3.58276367 C-16.65116211 3.36168945 -15.98665039 3.14061523 -15.30200195 2.9128418 C-10.16077542 1.22961135 -5.41595945 0.02661794 0 0 Z " fill="#2C3E4A" transform="translate(279.628173828125,107.854736328125)"/>
<path d="M0 0 C7.04898076 3.69232325 8.50982985 12.29857466 10.75 19.375 C11.72726291 22.56669909 12 24.56298998 12 28 C14.52234319 27.91218733 17.0415165 27.80521993 19.5625 27.6875 C20.26697266 27.66494141 20.97144531 27.64238281 21.69726562 27.61914062 C29.12350523 27.2426953 34.30697235 24.90232937 40 20 C42.98942161 18.00705226 43.70015514 17.73408247 47.06713867 17.58813477 C47.88475174 17.54969955 48.70236481 17.51126434 49.54475403 17.47166443 C50.87418282 17.42574913 50.87418282 17.42574913 52.23046875 17.37890625 C53.62207466 17.32229576 53.62207466 17.32229576 55.04179382 17.26454163 C65.79709266 16.86754998 76.55174029 16.88996935 87.3125 16.9375 C89.33658741 16.94253545 91.36067606 16.94709467 93.38476562 16.95117188 C98.25654217 16.96199165 103.12825654 16.97913806 108 17 C108.21001702 18.45681745 108.40673738 19.91555688 108.59765625 21.375 C108.70859619 22.18710938 108.81953613 22.99921875 108.93383789 23.8359375 C109 26 109 26 107.4375 28 C104.6270022 29.15302474 102.01290437 29.6576245 99 30 C98.8453125 31.299375 98.8453125 31.299375 98.6875 32.625 C97.71769824 37.38584502 95.67721873 40.9841719 93 45 C94.7325 45.1546875 94.7325 45.1546875 96.5 45.3125 C101.74297437 45.96553951 107.17617077 47.17617077 111 51 C98.88997048 52.82241147 86.77718694 53.81406966 74.5625 54.625 C73.58856293 54.69003723 72.61462585 54.75507446 71.61117554 54.82208252 C44.27888203 56.62342268 17.69160425 57.20319784 -9 50 C-8.505 51.98 -8.505 51.98 -8 54 C-9.7074998 52.71937515 -11.37373596 51.38232443 -13 50 C-13 49.34 -13 48.68 -13 48 C-13.66993484 47.95686172 -14.33986969 47.91372345 -15.03010559 47.86927795 C-21.80434597 47.35469414 -28.13230934 46.20331275 -34.69921875 44.49609375 C-36.14081108 44.13198143 -36.14081108 44.13198143 -37.61152649 43.76051331 C-40.63889952 42.99398299 -43.66317758 42.21596914 -46.6875 41.4375 C-48.75696662 40.91134245 -50.82662664 40.38594494 -52.89648438 39.86132812 C-57.933265 38.58298237 -62.96730669 37.29433915 -68 36 C-70.76433665 25.81162484 -73.00554991 15.60403213 -69.875 5.1875 C-68 2 -68 2 -65 0.875 C-62 1 -62 1 -59 3 C-56.4983328 8.50366784 -55.38957292 13.80743323 -54.52734375 19.77734375 C-54.26630859 20.87755859 -54.26630859 20.87755859 -54 22 C-50.731392 23.634304 -47.09910329 23.38634288 -43.5 23.5625 C-42.68934082 23.6049585 -41.87868164 23.64741699 -41.04345703 23.69116211 C-35.35563847 23.97379017 -29.69533391 24.09186022 -24 24 C-24 21.36 -24 18.72 -24 16 C-23.34 16 -22.68 16 -22 16 C-22 18.97 -22 21.94 -22 25 C-22.66 25 -23.32 25 -24 25 C-24 26.65 -24 28.3 -24 30 C-33.01470449 29.46839258 -42.01236323 28.89495536 -51 28 C-51.33 29.65 -51.66 31.3 -52 33 C-50.948125 32.83628906 -49.89625 32.67257813 -48.8125 32.50390625 C-42.88719143 31.76324268 -36.96150311 31.89311309 -31 31.9375 C-29.26556641 31.94426758 -29.26556641 31.94426758 -27.49609375 31.95117188 C-24.66400775 31.96287471 -21.83203189 31.97927004 -19 32 C-19 30.35 -19 28.7 -19 27 C-18.01 26.67 -17.02 26.34 -16 26 C-16.03480469 25.154375 -16.06960938 24.30875 -16.10546875 23.4375 C-16.29753659 15.38894289 -16.30691992 9.03030865 -11 2.5625 C-7.50113086 -0.17099152 -4.31742444 -0.43174244 0 0 Z " fill="#0D2432" transform="translate(276,158)"/>
<path d="M0 0 C0.88895462 -0.00637985 1.77790924 -0.0127597 2.69380188 -0.01933289 C3.64587021 -0.02044571 4.59793854 -0.02155853 5.57885742 -0.02270508 C6.57705002 -0.02603348 7.57524261 -0.02936188 8.60368347 -0.03279114 C10.71934551 -0.03784979 12.83501551 -0.04019979 14.95068359 -0.04003906 C18.13482495 -0.04220269 21.3186065 -0.06030601 24.50268555 -0.0793457 C45.27432075 -0.13769956 62.08470608 1.53378199 80.37182617 12.14526367 C78.37182617 13.14526367 78.37182617 13.14526367 75.99755859 12.46240234 C75.02149658 12.10380127 74.04543457 11.7452002 73.03979492 11.37573242 C66.66202647 9.16288186 60.30720994 7.72061888 53.68432617 6.45776367 C52.62149414 6.24571289 51.55866211 6.03366211 50.46362305 5.81518555 C39.87338257 3.74417615 29.59003597 2.94669466 18.80932617 2.58276367 C17.60985352 2.53958008 16.41038086 2.49639648 15.17456055 2.4519043 C12.24040824 2.34669565 9.30618367 2.24455485 6.37182617 2.14526367 C6.37182617 2.80526367 6.37182617 3.46526367 6.37182617 4.14526367 C7.10530273 4.41725586 7.8387793 4.68924805 8.59448242 4.96948242 C11.24442361 6.09132813 13.43016528 7.35045177 15.80932617 8.95776367 C16.52991211 9.43858398 17.25049805 9.9194043 17.99291992 10.41479492 C20.37182617 12.14526367 20.37182617 12.14526367 22.78076172 14.69775391 C27.29805331 18.45097936 32.58292067 17.96018973 38.20776367 18.03588867 C39.93598862 18.08830719 39.93598862 18.08830719 41.6991272 18.14178467 C45.38148993 18.24881003 49.06363402 18.32294022 52.74682617 18.39526367 C55.18568759 18.4581059 57.62449239 18.52318778 60.06323242 18.59057617 C63.61255837 18.68798292 67.16186561 18.7847133 70.71136475 18.87561035 C77.07317873 19.04059076 83.43106926 19.22051732 89.78588867 19.56713867 C90.9636084 19.62998047 92.14132812 19.69282227 93.35473633 19.75756836 C96.39289346 20.14797081 98.65749884 20.73331048 101.37182617 22.14526367 C102.36182617 23.63026367 102.36182617 23.63026367 103.37182617 25.14526367 C102.71182617 25.14526367 102.05182617 25.14526367 101.37182617 25.14526367 C102.27534162 30.08131124 103.63598058 34.88178604 104.9987793 39.70581055 C105.90934939 43.02455502 106.37182617 45.66863586 106.37182617 49.14526367 C107.03182617 49.14526367 107.69182617 49.14526367 108.37182617 49.14526367 C110.94373613 58.78992601 109.10420435 69.49344242 107.37182617 79.14526367 C106.38182617 79.47526367 105.39182617 79.80526367 104.37182617 80.14526367 C104.37182617 73.54526367 104.37182617 66.94526367 104.37182617 60.14526367 C105.03182617 60.14526367 105.69182617 60.14526367 106.37182617 60.14526367 C106.37182617 59.48526367 106.37182617 58.82526367 106.37182617 58.14526367 C105.44332352 58.1497049 104.51482086 58.15414612 103.55818176 58.15872192 C94.80364443 58.19881265 86.04913798 58.22925524 77.29452991 58.24888802 C72.7938069 58.25932075 68.2931598 58.27347067 63.79248047 58.29614258 C59.44826703 58.3178891 55.10412657 58.32983614 50.7598629 58.33501816 C49.10328714 58.33871066 47.44671532 58.34592119 45.79017067 58.35672379 C43.4680992 58.37126279 41.14632849 58.37324061 38.82421875 58.37231445 C38.14088974 58.379505 37.45756073 58.38669556 36.75352478 58.394104 C32.85172966 58.37728831 29.88890222 57.84967964 26.37182617 56.14526367 C26.37182617 55.81526367 26.37182617 55.48526367 26.37182617 55.14526367 C34.97319687 54.04978406 43.56657823 53.92907731 52.22338867 53.82885742 C53.73367826 53.80824147 55.24396269 53.78724394 56.75424194 53.7658844 C60.69634777 53.71114225 64.63850143 53.66152551 68.58068848 53.61303711 C72.61657889 53.56246869 76.65240129 53.50696862 80.68823242 53.4519043 C88.58270588 53.34490969 96.47723688 53.24333876 104.37182617 53.14526367 C104.37182617 52.15526367 104.37182617 51.16526367 104.37182617 50.14526367 C103.20586914 49.83975586 103.20586914 49.83975586 102.01635742 49.52807617 C99.37182617 48.14526367 99.37182617 48.14526367 98.00854492 45.32495117 C97.69530273 44.2344043 97.38206055 43.14385742 97.05932617 42.02026367 C96.73319336 40.92456055 96.40706055 39.82885742 96.07104492 38.69995117 C95.72493164 37.43538086 95.72493164 37.43538086 95.37182617 36.14526367 C93.72182617 35.81526367 92.07182617 35.48526367 90.37182617 35.14526367 C89.38182617 38.11526367 88.39182617 41.08526367 87.37182617 44.14526367 C83.20949049 44.34401616 79.0497085 44.48862279 74.8840332 44.5847168 C73.46948114 44.62479092 72.05525728 44.67927263 70.6418457 44.7487793 C58.90737573 45.31110767 58.90737573 45.31110767 55.07202148 42.39916992 C53.03213875 39.74648291 51.37182617 37.5618106 51.37182617 34.14526367 C50.6112793 34.45334961 49.85073242 34.76143555 49.06713867 35.07885742 C44.15389528 36.49673844 39.33161513 36.82356477 34.24682617 37.20776367 C32.28566115 37.36245791 30.32471069 37.51990278 28.36401367 37.68041992 C27.50146973 37.74624268 26.63892578 37.81206543 25.75024414 37.87988281 C23.5392338 38.12658454 21.52371306 38.60212586 19.37182617 39.14526367 C16.06512725 39.21206567 12.77217901 39.14343528 9.46557617 39.08276367 C6.86593303 39.13528172 4.83284366 39.37317975 2.37182617 40.14526367 C2.37182617 40.80526367 2.37182617 41.46526367 2.37182617 42.14526367 C0.93443105 42.17238433 -0.50311246 42.19171434 -1.94067383 42.20776367 C-2.74118164 42.21936523 -3.54168945 42.2309668 -4.36645508 42.24291992 C-6.62817383 42.14526367 -6.62817383 42.14526367 -9.62817383 41.14526367 C-9.62817383 40.15526367 -9.62817383 39.16526367 -9.62817383 38.14526367 C-8.70584961 37.94610352 -8.70584961 37.94610352 -7.76489258 37.74291992 C-6.95665039 37.56631836 -6.1484082 37.3897168 -5.31567383 37.20776367 C-4.51516602 37.03374023 -3.7146582 36.8597168 -2.88989258 36.68041992 C-0.48277283 36.14640208 -0.48277283 36.14640208 2.37182617 35.14526367 C3.53849284 33.22859701 3.53849284 33.22859701 4.37182617 31.14526367 C4.70182617 30.48526367 5.03182617 29.82526367 5.37182617 29.14526367 C-1.65490898 29.64870354 -8.64758292 30.18714335 -15.62817383 31.14526367 C-15.62817383 31.80526367 -15.62817383 32.46526367 -15.62817383 33.14526367 C-16.28043945 33.33862305 -16.93270508 33.53198242 -17.60473633 33.73120117 C-18.91571289 34.12178711 -18.91571289 34.12178711 -20.25317383 34.52026367 C-21.16969727 34.79225586 -22.0862207 35.06424805 -23.03051758 35.34448242 C-24.97912783 35.94518182 -26.90487132 36.62089607 -28.81567383 37.33276367 C-32.18378745 38.30577427 -35.13474062 38.20878064 -38.62817383 38.14526367 C-41.40565064 38.43166153 -41.40565064 38.43166153 -43.62817383 39.14526367 C-43.95817383 39.80526367 -44.28817383 40.46526367 -44.62817383 41.14526367 C-47.15447769 41.96058435 -49.61679219 42.64699189 -52.19067383 43.27026367 C-52.88225586 43.45202148 -53.57383789 43.6337793 -54.28637695 43.82104492 C-59.18090035 45.03441233 -63.58864276 45.31532659 -68.62817383 45.14526367 C-66.11750914 42.08619441 -63.7275745 41.3933509 -59.94067383 40.45776367 C-58.94680664 40.20639648 -57.95293945 39.9550293 -56.92895508 39.69604492 C-56.16969727 39.51428711 -55.41043945 39.3325293 -54.62817383 39.14526367 C-55.12317383 37.66026367 -55.12317383 37.66026367 -55.62817383 36.14526367 C-54.89703369 35.94368652 -54.16589355 35.74210937 -53.41259766 35.53442383 C-50.08780103 34.61598338 -46.76423357 33.69316952 -43.44067383 32.77026367 C-42.29018555 32.4531543 -41.13969727 32.13604492 -39.9543457 31.80932617 C-38.28662109 31.34526367 -38.28662109 31.34526367 -36.58520508 30.87182617 C-35.56402588 30.58903809 -34.54284668 30.30625 -33.49072266 30.01489258 C-30.79375683 29.19556701 -28.23934345 28.20061706 -25.62817383 27.14526367 C-23.79681591 26.67909984 -21.96473412 26.21549041 -20.12817383 25.77026367 C-11.32697409 23.56996374 -2.77278879 21.19602455 5.37182617 17.14526367 C3.92166423 13.5119775 2.14990301 12.02784791 -1.12817383 9.95776367 C-1.92223633 9.44858398 -2.71629883 8.9394043 -3.53442383 8.41479492 C-9.48599991 4.80609674 -16.11895174 5.66281468 -22.75317383 7.14526367 C-24.04759165 7.46774839 -25.34047903 7.79690179 -26.62817383 8.14526367 C-23.93833341 5.45542325 -20.85403741 4.71949249 -17.31567383 3.58276367 C-16.65116211 3.36168945 -15.98665039 3.14061523 -15.30200195 2.9128418 C-10.16077542 1.22961135 -5.41595945 0.02661794 0 0 Z " fill="#353543" transform="translate(279.628173828125,107.854736328125)"/>
<path d="M0 0 C0.88895462 -0.00637985 1.77790924 -0.0127597 2.69380188 -0.01933289 C3.64587021 -0.02044571 4.59793854 -0.02155853 5.57885742 -0.02270508 C6.57705002 -0.02603348 7.57524261 -0.02936188 8.60368347 -0.03279114 C10.71934551 -0.03784979 12.83501551 -0.04019979 14.95068359 -0.04003906 C18.13482495 -0.04220269 21.3186065 -0.06030601 24.50268555 -0.0793457 C45.27432075 -0.13769956 62.08470608 1.53378199 80.37182617 12.14526367 C78.37182617 13.14526367 78.37182617 13.14526367 75.99755859 12.46240234 C75.02149658 12.10380127 74.04543457 11.7452002 73.03979492 11.37573242 C66.66202647 9.16288186 60.30720994 7.72061888 53.68432617 6.45776367 C52.62149414 6.24571289 51.55866211 6.03366211 50.46362305 5.81518555 C39.87338257 3.74417615 29.59003597 2.94669466 18.80932617 2.58276367 C17.60985352 2.53958008 16.41038086 2.49639648 15.17456055 2.4519043 C12.24040824 2.34669565 9.30618367 2.24455485 6.37182617 2.14526367 C6.37182617 2.80526367 6.37182617 3.46526367 6.37182617 4.14526367 C7.10530273 4.41725586 7.8387793 4.68924805 8.59448242 4.96948242 C11.24442361 6.09132813 13.43016528 7.35045177 15.80932617 8.95776367 C16.52991211 9.43858398 17.25049805 9.9194043 17.99291992 10.41479492 C20.37182617 12.14526367 20.37182617 12.14526367 22.78076172 14.69775391 C27.29805331 18.45097936 32.58292067 17.96018973 38.20776367 18.03588867 C39.93598862 18.08830719 39.93598862 18.08830719 41.6991272 18.14178467 C45.38148993 18.24881003 49.06363402 18.32294022 52.74682617 18.39526367 C55.18568759 18.4581059 57.62449239 18.52318778 60.06323242 18.59057617 C63.61255837 18.68798292 67.16186561 18.7847133 70.71136475 18.87561035 C77.07317873 19.04059076 83.43106926 19.22051732 89.78588867 19.56713867 C90.9636084 19.62998047 92.14132812 19.69282227 93.35473633 19.75756836 C96.39289346 20.14797081 98.65749884 20.73331048 101.37182617 22.14526367 C102.36182617 23.63026367 102.36182617 23.63026367 103.37182617 25.14526367 C92.48833466 25.27148973 81.63137781 25.09097705 70.75387573 24.71618652 C36.10168182 23.34300893 36.10168182 23.34300893 2.11401367 29.25854492 C-3.76177297 30.65082422 -9.59556755 30.95935901 -15.62817383 31.14526367 C-15.62817383 31.80526367 -15.62817383 32.46526367 -15.62817383 33.14526367 C-16.28043945 33.33862305 -16.93270508 33.53198242 -17.60473633 33.73120117 C-18.91571289 34.12178711 -18.91571289 34.12178711 -20.25317383 34.52026367 C-21.16969727 34.79225586 -22.0862207 35.06424805 -23.03051758 35.34448242 C-24.97912783 35.94518182 -26.90487132 36.62089607 -28.81567383 37.33276367 C-32.18378745 38.30577427 -35.13474062 38.20878064 -38.62817383 38.14526367 C-41.40565064 38.43166153 -41.40565064 38.43166153 -43.62817383 39.14526367 C-43.95817383 39.80526367 -44.28817383 40.46526367 -44.62817383 41.14526367 C-47.15447769 41.96058435 -49.61679219 42.64699189 -52.19067383 43.27026367 C-52.88225586 43.45202148 -53.57383789 43.6337793 -54.28637695 43.82104492 C-59.18090035 45.03441233 -63.58864276 45.31532659 -68.62817383 45.14526367 C-66.11750914 42.08619441 -63.7275745 41.3933509 -59.94067383 40.45776367 C-58.94680664 40.20639648 -57.95293945 39.9550293 -56.92895508 39.69604492 C-56.16969727 39.51428711 -55.41043945 39.3325293 -54.62817383 39.14526367 C-55.12317383 37.66026367 -55.12317383 37.66026367 -55.62817383 36.14526367 C-54.89703369 35.94368652 -54.16589355 35.74210937 -53.41259766 35.53442383 C-50.08780103 34.61598338 -46.76423357 33.69316952 -43.44067383 32.77026367 C-42.29018555 32.4531543 -41.13969727 32.13604492 -39.9543457 31.80932617 C-38.28662109 31.34526367 -38.28662109 31.34526367 -36.58520508 30.87182617 C-35.56402588 30.58903809 -34.54284668 30.30625 -33.49072266 30.01489258 C-30.79375683 29.19556701 -28.23934345 28.20061706 -25.62817383 27.14526367 C-23.79681591 26.67909984 -21.96473412 26.21549041 -20.12817383 25.77026367 C-11.32697409 23.56996374 -2.77278879 21.19602455 5.37182617 17.14526367 C3.92166423 13.5119775 2.14990301 12.02784791 -1.12817383 9.95776367 C-1.92223633 9.44858398 -2.71629883 8.9394043 -3.53442383 8.41479492 C-9.48599991 4.80609674 -16.11895174 5.66281468 -22.75317383 7.14526367 C-24.04759165 7.46774839 -25.34047903 7.79690179 -26.62817383 8.14526367 C-23.93833341 5.45542325 -20.85403741 4.71949249 -17.31567383 3.58276367 C-16.65116211 3.36168945 -15.98665039 3.14061523 -15.30200195 2.9128418 C-10.16077542 1.22961135 -5.41595945 0.02661794 0 0 Z " fill="#314452" transform="translate(279.628173828125,107.854736328125)"/>
<path d="M0 0 C9.82113521 0.58558566 19.50124239 1.60497165 29.25 2.9375 C31.17585938 3.19176758 31.17585938 3.19176758 33.140625 3.45117188 C40.15243954 4.39589894 47.08702343 5.4881656 54 7 C54 7.99 54 8.98 54 10 C55.04957886 9.97643433 55.04957886 9.97643433 56.12036133 9.95239258 C59.35098896 9.8892767 62.58148618 9.8507692 65.8125 9.8125 C66.91271484 9.78736328 68.01292969 9.76222656 69.14648438 9.73632812 C86.16188981 9.58574932 86.16188981 9.58574932 91.80395508 14.60473633 C92.1986499 15.06517334 92.59334473 15.52561035 93 16 C80.88997048 17.82241147 68.77718694 18.81406966 56.5625 19.625 C55.58856293 19.69003723 54.61462585 19.75507446 53.61117554 19.82208252 C0.66556699 23.31147322 0.66556699 23.31147322 -22 16 C-22 15.67 -22 15.34 -22 15 C-21.18015625 15.01160156 -20.3603125 15.02320313 -19.515625 15.03515625 C-17.89914062 15.04869141 -17.89914062 15.04869141 -16.25 15.0625 C-15.18265625 15.07410156 -14.1153125 15.08570313 -13.015625 15.09765625 C-9.38516905 15.05190768 -9.38516905 15.05190768 -6 14 C-4.71008084 11.83056429 -4.71008084 11.83056429 -3.875 9.1875 C-2.73700051 6.0039229 -1.53953658 3.00923934 0 0 Z " fill="#031D29" transform="translate(294,193)"/>
<path d="M0 0 C-1.04166667 1.79036458 -2.08333333 3.58072917 -3.125 5.37109375 C-4.07886962 6.83865039 -4.07886962 6.83865039 -4 8 C-9.94 8.495 -9.94 8.495 -16 9 C-15.814375 9.9075 -15.62875 10.815 -15.4375 11.75 C-15.04265379 14.68314324 -15.05308428 16.2644657 -16 19 C-16.66 19 -17.32 19 -18 19 C-18 19.66 -18 20.32 -18 21 C-17.34 21.33 -16.68 21.66 -16 22 C-17.175625 22.0928125 -17.175625 22.0928125 -18.375 22.1875 C-21.17779294 22.72016575 -21.17779294 22.72016575 -22.1875 25.1875 C-22.455625 26.115625 -22.72375 27.04375 -23 28 C-23.33644531 28.9075 -23.67289062 29.815 -24.01953125 30.75 C-25.37628523 35.2472881 -25.44519961 39.60004141 -25.65625 44.26953125 C-25.7696875 45.17058594 -25.883125 46.07164062 -26 47 C-26.99 47.495 -26.99 47.495 -28 48 C-28.33 49.65 -28.66 51.3 -29 53 C-45.335 53.495 -45.335 53.495 -62 54 C-61.67 52.35 -61.34 50.7 -61 49 C-51.84435229 48.65084394 -43.04039783 49.72958023 -34 51 C-34 49.35 -34 47.7 -34 46 C-33.34 46 -32.68 46 -32 46 C-32 43.03 -32 40.06 -32 37 C-32.66 37 -33.32 37 -34 37 C-34 39.64 -34 42.28 -34 45 C-43.42869877 46.32368341 -52.55656618 45.71960516 -62 45 C-62 43.02 -62 41.04 -62 39 C-56.72 39 -51.44 39 -46 39 C-45.67 38.34 -45.34 37.68 -45 37 C-44.67 37.99 -44.34 38.98 -44 40 C-43.97494385 39.23333008 -43.9498877 38.46666016 -43.92407227 37.67675781 C-43.80798577 34.20100717 -43.68531634 30.72551908 -43.5625 27.25 C-43.52318359 26.0434375 -43.48386719 24.836875 -43.44335938 23.59375 C-43.40146484 22.43359375 -43.35957031 21.2734375 -43.31640625 20.078125 C-43.27974854 19.00981445 -43.24309082 17.94150391 -43.20532227 16.84082031 C-43.03013091 14.41688848 -42.68801513 12.32113288 -42 10 C-42.66 9.67 -43.32 9.34 -44 9 C-41.27107717 8.35312193 -38.54187553 7.70746282 -35.8125 7.0625 C-34.65911133 6.78889648 -34.65911133 6.78889648 -33.48242188 6.50976562 C-29.66559908 5.60879887 -25.85343574 4.73362003 -22 4 C-22 3.34 -22 2.68 -22 2 C-4.51048951 -1.69143357 -4.51048951 -1.69143357 0 0 Z " fill="#2A404D" transform="translate(286,137)"/>
<path d="M0 0 C3.57807829 1.28810818 3.81606653 1.7180348 5.375 5 C7.14307819 9.54439932 7.97690937 14.11861984 8.6328125 18.9375 C8.87644531 20.0203125 8.87644531 20.0203125 9.125 21.125 C12.393608 22.759304 16.02589671 22.51134288 19.625 22.6875 C20.43565918 22.7299585 21.24631836 22.77241699 22.08154297 22.81616211 C27.76936153 23.09879017 33.42966609 23.21686022 39.125 23.125 C39.125 20.485 39.125 17.845 39.125 15.125 C39.785 15.125 40.445 15.125 41.125 15.125 C41.125 18.095 41.125 21.065 41.125 24.125 C40.465 24.125 39.805 24.125 39.125 24.125 C39.125 25.775 39.125 27.425 39.125 29.125 C30.11029551 28.59339258 21.11263677 28.01995536 12.125 27.125 C11.795 28.775 11.465 30.425 11.125 32.125 C12.21296875 31.96128906 13.3009375 31.79757813 14.421875 31.62890625 C19.74102545 30.96459825 25.0224083 31.01598684 30.375 31.0625 C31.3546875 31.06701172 32.334375 31.07152344 33.34375 31.07617188 C35.15528604 31.08483359 36.96681437 31.09556346 38.77832031 31.10913086 C40.89383845 31.1234368 43.00943349 31.125 45.125 31.125 C47.875 33.625 47.875 33.625 50.125 36.125 C49.63 37.115 49.63 37.115 49.125 38.125 C47.805 38.125 46.485 38.125 45.125 38.125 C45.125 40.765 45.125 43.405 45.125 46.125 C38.34900175 45.61681414 31.97068765 44.54470578 25.3984375 42.83984375 C24.08789902 42.5090255 24.08789902 42.5090255 22.75088501 42.17152405 C19.99883849 41.47520956 17.24943458 40.76904917 14.5 40.0625 C12.61865645 39.58462902 10.73714728 39.10740959 8.85546875 38.63085938 C4.27669926 37.46975264 -0.29973008 36.2998174 -4.875 35.125 C-7.97850423 23.6865721 -10.50769091 12.17373987 -4.875 1.125 C-2.875 0.125 -2.875 0.125 0 0 Z " fill="#08202C" transform="translate(212.875,158.875)"/>
<path d="M0 0 C15.65026669 -0.36005215 30.62371166 -0.04781141 46 3 C46.80469727 3.1551709 47.60939453 3.3103418 48.43847656 3.47021484 C56.53894262 5.0576214 64.41083527 6.71788643 71.95703125 10.16796875 C74.02008531 11.08797067 74.02008531 11.08797067 76.4296875 11.453125 C79.36671471 12.07802441 81.65254439 13.17932308 84.3125 14.5625 C85.63701172 15.24505859 85.63701172 15.24505859 86.98828125 15.94140625 C87.98408203 16.46541016 87.98408203 16.46541016 89 17 C89 17.33 89 17.66 89 18 C76.11306844 18.09759746 63.22893771 17.92130512 50.34643555 17.58496094 C47.8984875 17.52811928 45.45015797 17.48590297 43.00170898 17.45800781 C39.41987141 17.41499996 35.84227118 17.32182406 32.26171875 17.21875 C30.63794563 17.21506409 30.63794563 17.21506409 28.98136902 17.21130371 C20.41764176 16.88403017 16.17397227 13.69372526 10 8 C8.15787058 6.82194686 6.29158175 5.67759887 4.375 4.625 C1.8359375 3.2265625 1.8359375 3.2265625 0 2 C0 1.34 0 0.68 0 0 Z " fill="#0F2633" transform="translate(286,110)"/>
<path d="M0 0 C2.86042348 0.03554739 5.72074774 0.0484776 8.58135223 0.06056595 C48.74304548 0.23050432 48.74304548 0.23050432 54.89135742 3.40161133 C55.88135742 4.88661133 55.88135742 4.88661133 56.89135742 6.40161133 C46.00786591 6.52783739 35.15090906 6.34732471 24.27340698 5.97253418 C-10.37878693 4.59935659 -10.37878693 4.59935659 -44.36645508 10.51489258 C-50.24224172 11.90717188 -56.0760363 12.21570667 -62.10864258 12.40161133 C-62.10864258 13.06161133 -62.10864258 13.72161133 -62.10864258 14.40161133 C-62.7609082 14.5949707 -63.41317383 14.78833008 -64.08520508 14.98754883 C-64.95918945 15.24793945 -65.83317383 15.50833008 -66.73364258 15.77661133 C-67.65016602 16.04860352 -68.56668945 16.3205957 -69.51098633 16.60083008 C-71.45959658 17.20152948 -73.38534007 17.87724373 -75.29614258 18.58911133 C-78.6642562 19.56212193 -81.61520937 19.4651283 -85.10864258 19.40161133 C-87.88611939 19.68800918 -87.88611939 19.68800918 -90.10864258 20.40161133 C-90.43864258 21.06161133 -90.76864258 21.72161133 -91.10864258 22.40161133 C-93.63494644 23.21693201 -96.09726094 23.90333954 -98.67114258 24.52661133 C-99.36272461 24.70836914 -100.05430664 24.89012695 -100.7668457 25.07739258 C-105.6613691 26.29075998 -110.06911151 26.57167424 -115.10864258 26.40161133 C-112.80516656 23.7548377 -110.86272532 22.7544468 -107.53051758 21.71801758 C-106.62462891 21.4323291 -105.71874023 21.14664063 -104.78540039 20.85229492 C-103.81957031 20.55919434 -102.85374023 20.26609375 -101.85864258 19.96411133 C-100.86445313 19.65554199 -99.87026367 19.34697266 -98.84594727 19.02905273 C-92.21471175 16.98991027 -85.56117717 15.10215358 -78.84301758 13.37036133 C-74.41716192 12.22223141 -70.0128847 11.00459655 -65.60864258 9.77661133 C-64.86646484 9.5702002 -64.12428711 9.36378906 -63.35961914 9.15112305 C-61.27526036 8.57035219 -59.19127147 7.98855913 -57.10864258 7.40161133 C-56.04291016 7.10158203 -54.97717773 6.80155273 -53.87915039 6.49243164 C-51.97708922 5.94215909 -50.07468592 5.3905712 -48.19165039 4.77835083 C-32.30237037 -0.3862931 -16.50442704 -0.23591234 0 0 Z " fill="#687985" transform="translate(326.108642578125,126.598388671875)"/>
<path d="M0 0 C2.97 0.495 2.97 0.495 6 1 C11 15.7 11 15.7 11 21 C11.66 21 12.32 21 13 21 C15.57190996 30.64466234 13.73237817 41.34817874 12 51 C10.515 51.495 10.515 51.495 9 52 C9 45.4 9 38.8 9 32 C9.66 32 10.32 32 11 32 C11 31.34 11 30.68 11 30 C10.07149734 30.00444122 9.14299469 30.00888245 8.18635559 30.01345825 C-0.56818174 30.05354898 -9.32268819 30.08399157 -18.07729626 30.10362434 C-22.57801928 30.11405708 -27.07866638 30.128207 -31.5793457 30.15087891 C-35.92355914 30.17262542 -40.2676996 30.18457247 -44.61196327 30.18975449 C-46.26853903 30.19344699 -47.92511085 30.20065752 -49.5816555 30.21146011 C-51.90372698 30.22599912 -54.22549768 30.22797694 -56.54760742 30.22705078 C-57.23093643 30.23424133 -57.91426544 30.24143188 -58.61830139 30.24884033 C-62.52009651 30.23202464 -65.48292395 29.70441597 -69 28 C-69 27.67 -69 27.34 -69 27 C-60.3986293 25.90452039 -51.80524794 25.78381363 -43.1484375 25.68359375 C-41.63814791 25.6629778 -40.12786349 25.64198027 -38.61758423 25.62062073 C-34.6754784 25.56587858 -30.73332474 25.51626184 -26.7911377 25.46777344 C-22.75524729 25.41720501 -18.71942488 25.36170495 -14.68359375 25.30664062 C-6.78912029 25.19964601 1.10541071 25.09807509 9 25 C9 24.01 9 23.02 9 22 C8.236875 21.855625 7.47375 21.71125 6.6875 21.5625 C3.09740903 19.47523781 2.6784881 17.54889375 1.55859375 13.6640625 C0.61093802 9.14447365 0.24962 4.60505855 0 0 Z " fill="#3F4F5D" transform="translate(375,136)"/>
<path d="M0 0 C-1 3 -1 3 -4 5 C-5.82177734 5.65429688 -5.82177734 5.65429688 -7.8359375 6.21875 C-8.93808594 6.53392578 -8.93808594 6.53392578 -10.0625 6.85546875 C-10.825625 7.06816406 -11.58875 7.28085938 -12.375 7.5 C-18.00095742 9.04370992 -18.00095742 9.04370992 -23.4765625 11.03125 C-25.71500351 11.89058958 -27.73688678 12.40952578 -30.07421875 12.8984375 C-36.82337883 14.32740821 -43.34317423 16.52321034 -49.91210938 18.609375 C-50.89630859 18.91617188 -51.88050781 19.22296875 -52.89453125 19.5390625 C-54.22254761 19.95986084 -54.22254761 19.95986084 -55.57739258 20.38916016 C-58 21 -58 21 -62 21 C-61.34 19.68 -60.68 18.36 -60 17 C-59.34 17 -58.68 17 -58 17 C-57.7525 16.360625 -57.505 15.72125 -57.25 15.0625 C-56.8375 14.381875 -56.425 13.70125 -56 13 C-55.42507812 12.85949219 -54.85015625 12.71898437 -54.2578125 12.57421875 C-51.31068758 11.82469044 -49.19612729 10.3701624 -46.625 8.75 C-36.14378865 2.49217602 -25.13049462 -0.96083299 -13 -1.6875 C-12.19304687 -1.74744141 -11.38609375 -1.80738281 -10.5546875 -1.86914062 C-9.77351563 -1.91619141 -8.99234375 -1.96324219 -8.1875 -2.01171875 C-7.47980469 -2.05772217 -6.77210938 -2.10372559 -6.04296875 -2.15112305 C-3.63297964 -1.97285067 -2.07909319 -1.19518658 0 0 Z " fill="#102634" transform="translate(286,123)"/>
<path d="M0 0 C0.66 0.33 1.32 0.66 2 1 C3.13019995 5.68225694 3.63762321 8.54408724 1.125 12.75 C0.073125 14.35875 0.073125 14.35875 -1 16 C-2.54062077 20.54234641 -2.37290224 25.45189606 -2.62109375 30.19921875 C-2.80865234 31.58560547 -2.80865234 31.58560547 -3 33 C-3.99 33.495 -3.99 33.495 -5 34 C-5.33 35.65 -5.66 37.3 -6 39 C-22.335 39.495 -22.335 39.495 -39 40 C-38.67 38.35 -38.34 36.7 -38 35 C-28.84435229 34.65084394 -20.04039783 35.72958023 -11 37 C-11 35.35 -11 33.7 -11 32 C-10.34 32 -9.68 32 -9 32 C-9 29.03 -9 26.06 -9 23 C-9.99 23 -10.98 23 -12 23 C-12 20.69 -12 18.38 -12 16 C-11.01 16 -10.02 16 -9 16 C-8.34 13.03 -7.68 10.06 -7 7 C-7.66 7 -8.32 7 -9 7 C-9 5.02 -9 3.04 -9 1 C-6.525 1.495 -6.525 1.495 -4 2 C-3.505 3.98 -3.505 3.98 -3 6 C-2.690625 5.195625 -2.38125 4.39125 -2.0625 3.5625 C-1 1 -1 1 0 0 Z " fill="#2B4451" transform="translate(263,151)"/>
<path d="M0 0 C-0.33 0.99 -0.66 1.98 -1 3 C-3.5 4.125 -3.5 4.125 -6 5 C-6.33 5.33 -6.66 5.66 -7 6 C-9.9570506 6.54959324 -12.90299854 7.04585083 -15.875 7.5 C-16.74253906 7.6338208 -17.61007812 7.7676416 -18.50390625 7.90551758 C-28.38787173 9.40048582 -37.99726632 10.17412883 -48 10 C-46.12050295 6.42895561 -44.82946843 4.45255699 -41 3 C-41 2.34 -41 1.68 -41 1 C-27.32550669 0.3507249 -13.69096943 -0.16741675 0 0 Z " fill="#AA0812" transform="translate(337,135)"/>
<path d="M0 0 C7.92 0 15.84 0 24 0 C23.01 0.66 22.02 1.32 21 2 C21.33 3.32 21.66 4.64 22 6 C23.32 6 24.64 6 26 6 C26 6.66 26 7.32 26 8 C26.66 8 27.32 8 28 8 C28 8.99 28 9.98 28 11 C23.49765627 11.04944705 18.9954707 11.08574161 14.49291992 11.10986328 C12.96131639 11.11991935 11.42973205 11.133566 9.89819336 11.15087891 C7.69640364 11.17514498 5.49486781 11.18648688 3.29296875 11.1953125 C2.60849167 11.20563507 1.92401459 11.21595764 1.21879578 11.22659302 C-2.43061661 11.22745382 -3.87148502 11.08567666 -7 9 C-6.030625 8.443125 -5.06125 7.88625 -4.0625 7.3125 C-0.44722852 5.11505259 -0.44722852 5.11505259 0 0 Z " fill="#293743" transform="translate(340,132)"/>
<path d="M0 0 C2.3125 0.1875 2.3125 0.1875 5 1 C9.76289446 6.95361807 9.46170882 14.71654338 9 22 C8.10948296 26.24708126 7.25469303 29.98639534 4 33 C1.5 33.5 1.5 33.5 -1 33 C-2.875 31.3125 -2.875 31.3125 -4 29 C-3.79298746 26.23983277 -3.22985153 24.40862494 -1.875 22 C-0.67996754 19.26849724 -1.06826541 17.79520377 -2 15 C-3.49985609 13.33289654 -3.49985609 13.33289654 -5 12 C-5 11.34 -5 10.68 -5 10 C-2.525 10.99 -2.525 10.99 0 12 C0 11.38511719 0 10.77023438 0 10.13671875 C0 6.7578125 0 3.37890625 0 0 Z " fill="#263C49" transform="translate(270,170)"/>
<path d="M0 0 C2.4375 1.6875 2.4375 1.6875 4.4375 4.6875 C3.15617187 4.84605469 1.87484375 5.00460938 0.5546875 5.16796875 C-13.76056018 7.0515905 -25.91788525 10.11987635 -38.453125 17.6484375 C-39.14921875 17.99132812 -39.8453125 18.33421875 -40.5625 18.6875 C-41.2225 18.3575 -41.8825 18.0275 -42.5625 17.6875 C-41.28187515 15.9800002 -39.94482443 14.31376404 -38.5625 12.6875 C-37.9025 12.6875 -37.2425 12.6875 -36.5625 12.6875 C-36.18931641 11.7903125 -36.18931641 11.7903125 -35.80859375 10.875 C-32.28025613 4.68105309 -23.86934389 1.54666647 -17.40234375 -0.62109375 C-11.34691965 -2.09538545 -5.85910145 -2.15861632 0 0 Z " fill="#6B7E8B" transform="translate(275.5625,116.3125)"/>
<path d="M0 0 C0.33 0 0.66 0 1 0 C1.01981934 0.91813477 1.03963867 1.83626953 1.06005859 2.78222656 C1.13826955 6.19671825 1.22496584 9.61077702 1.31738281 13.02490234 C1.35560666 14.50105536 1.39047103 15.97729943 1.421875 17.45361328 C1.46766986 19.57878094 1.52563837 21.70332542 1.5859375 23.828125 C1.6173584 25.1059082 1.6487793 26.38369141 1.68115234 27.70019531 C1.97847417 30.77722583 2.56104298 32.35330563 4 35 C3.67 35.66 3.34 36.32 3 37 C3.66 37.33 4.32 37.66 5 38 C3.02 38.495 3.02 38.495 1 39 C1.66 39.94875 2.32 40.8975 3 41.875 C5 45 5 45 5 47 C5.66 47 6.32 47 7 47 C6.67 45.35 6.34 43.7 6 42 C8 42 8 42 9.4375 43.3125 C9.953125 43.869375 10.46875 44.42625 11 45 C11.556875 45.556875 12.11375 46.11375 12.6875 46.6875 C13.120625 47.120625 13.55375 47.55375 14 48 C13.01 48.495 13.01 48.495 12 49 C12.33 50.32 12.66 51.64 13 53 C12.01 53.495 12.01 53.495 11 54 C8.60726294 52.71817658 6.31259225 51.40719057 4 50 C1.50907189 48.75453595 0.58919267 49.2232422 -2 50 C-2 49.34 -2 48.68 -2 48 C-1.01 47.505 -1.01 47.505 0 47 C-0.53540311 41.26777953 -0.53540311 41.26777953 -4 37 C-4.6875 34.3125 -4.6875 34.3125 -5 32 C-3.35 31.67 -1.7 31.34 0 31 C-0.33 28.03 -0.66 25.06 -1 22 C-1.78375 22.20625 -2.5675 22.4125 -3.375 22.625 C-4.24125 22.74875 -5.1075 22.8725 -6 23 C-6.66 22.34 -7.32 21.68 -8 21 C-7.8125 18.5 -7.8125 18.5 -7 16 C-4 14 -4 14 -1 14 C-0.67 9.38 -0.34 4.76 0 0 Z " fill="#415865" transform="translate(158,162)"/>
<path d="M0 0 C16.5 0 33 0 50 0 C50.66 2.64 51.32 5.28 52 8 C42.87268737 7.39380496 33.80564072 6.46362325 24.73193359 5.32543945 C22.60716829 5.06027465 20.48140689 4.80439873 18.35546875 4.54882812 C16.9790971 4.37816428 15.60279235 4.20695986 14.2265625 4.03515625 C13.00533691 3.8844165 11.78411133 3.73367676 10.52587891 3.57836914 C6.87539317 2.97956006 3.53150192 2.08354828 0 1 C0 0.67 0 0.34 0 0 Z " fill="#465967" transform="translate(293,191)"/>
<path d="M0 0 C27.06 0 54.12 0 82 0 C73.71642117 4.14178942 64.25069396 3.16316498 55.17578125 3.16796875 C53.74187691 3.17118742 52.30797289 3.17455194 50.87406921 3.17805481 C47.88275388 3.1840135 44.89146732 3.18589783 41.90014648 3.18530273 C38.07368923 3.18520073 34.24741593 3.19890697 30.42100239 3.21607494 C27.46556249 3.22720255 24.51016718 3.22922179 21.55470848 3.22869301 C20.14375354 3.22986989 18.73279732 3.23427525 17.32186317 3.24202538 C15.35042348 3.25185003 13.37892914 3.24767658 11.4074707 3.24291992 C9.72824272 3.24505745 9.72824272 3.24505745 8.01509094 3.24723816 C4.9594611 2.9966758 2.76125581 2.29520848 0 1 C0 0.67 0 0.34 0 0 Z " fill="#61717D" transform="translate(306,163)"/>
<path d="M0 0 C8.91 0 17.82 0 27 0 C29 6 29 6 29 8 C19.76 8 10.52 8 1 8 C0.67 5.36 0.34 2.72 0 0 Z " fill="#BCC5CB" transform="translate(337,143)"/>
<path d="M0 0 C37.65041029 -0.32167149 37.65041029 -0.32167149 44 3 C44.66 3.99 45.32 4.98 46 6 C28.98526262 6.19733587 12.00151661 5.59206912 -5 5 C-5 4.67 -5 4.34 -5 4 C-2.36 4 0.28 4 3 4 C1.68 3.34 0.36 2.68 -1 2 C-0.67 1.34 -0.34 0.68 0 0 Z " fill="#5A6A76" transform="translate(337,127)"/>
<path d="M0 0 C2.875 0.6875 2.875 0.6875 3.875 1.6875 C3.97432392 3.99824168 4.00469618 6.31212942 4 8.625 C4.00257813 9.89214844 4.00515625 11.15929687 4.0078125 12.46484375 C3.875 15.6875 3.875 15.6875 2.875 17.6875 C-3.27734375 17.78515625 -3.27734375 17.78515625 -5.125 17.6875 C-7.11284899 15.69965101 -6.35497787 11.96049593 -6.375 9.25 C-6.395625 8.55583984 -6.41625 7.86167969 -6.4375 7.14648438 C-6.453125 5.12890625 -6.453125 5.12890625 -6.125 1.6875 C-3.125 -0.3125 -3.125 -0.3125 0 0 Z " fill="#43C8BD" transform="translate(127.125,88.3125)"/>
<path d="M0 0 C0.33 0.66 0.66 1.32 1 2 C1.99 2 2.98 2 4 2 C4 2.66 4 3.32 4 4 C6.31 4.33 8.62 4.66 11 5 C13.30844801 11.34823202 13.19818283 17.29481414 13 24 C11.24762861 21.37144292 10.59325764 19.80477974 9.75 16.875 C9.06224273 14.75611954 9.06224273 14.75611954 8 13 C5.00903791 11.84803246 5.00903791 11.84803246 2 12 C1.34 12 0.68 12 0 12 C-0.79502868 15.06551599 -1.44932202 18.14323156 -2.0625 21.25 C-2.23910156 22.14203125 -2.41570312 23.0340625 -2.59765625 23.953125 C-2.73042969 24.62859375 -2.86320313 25.3040625 -3 26 C-3.33 26 -3.66 26 -4 26 C-4.11269443 19.8894576 -3.89604368 14.04829486 -3 8 C-2.34 8 -1.68 8 -1 8 C-0.67 5.36 -0.34 2.72 0 0 Z " fill="#324452" transform="translate(208,148)"/>
<path d="M0 0 C1.258125 -0.020625 2.51625 -0.04125 3.8125 -0.0625 C4.52019531 -0.07410156 5.22789062 -0.08570312 5.95703125 -0.09765625 C8 0 8 0 11 1 C11.89135742 3.00952148 11.89135742 3.00952148 12.60546875 5.62109375 C12.86650391 6.55630859 13.12753906 7.49152344 13.39648438 8.45507812 C13.65751953 9.43927734 13.91855469 10.42347656 14.1875 11.4375 C14.59645508 12.90799805 14.59645508 12.90799805 15.01367188 14.40820312 C17 21.64162359 17 21.64162359 17 24 C11.39 24 5.78 24 0 24 C0 21.36 0 18.72 0 16 C2.31 16 4.62 16 7 16 C7.33 17.32 7.66 18.64 8 20 C8.33 19.34 8.66 18.68 9 18 C10.32 18 11.64 18 13 18 C12.71125 17.09636719 12.4225 16.19273437 12.125 15.26171875 C11.75375 14.08222656 11.3825 12.90273437 11 11.6875 C10.62875 10.51574219 10.2575 9.34398438 9.875 8.13671875 C9 5 9 5 9 2 C6.03 2 3.06 2 0 2 C0 1.34 0 0.68 0 0 Z " fill="#495B69" transform="translate(140,113)"/>
<path d="M0 0 C0.66 0 1.32 0 2 0 C2 2.97 2 5.94 2 9 C1.34 9 0.68 9 0 9 C0 10.65 0 12.3 0 14 C-9.01470449 13.46839258 -18.01236323 12.89495536 -27 12 C-27 11.34 -27 10.68 -27 10 C-27.99 10 -28.98 10 -30 10 C-29.67 9.01 -29.34 8.02 -29 7 C-27.11667969 7.10828125 -27.11667969 7.10828125 -25.1953125 7.21875 C-16.78835967 7.68948566 -8.42368601 8.13809321 0 8 C0 5.36 0 2.72 0 0 Z " fill="#1E3441" transform="translate(252,174)"/>
<path d="M0 0 C2.97 0.495 2.97 0.495 6 1 C8.42080258 7.9165788 10.29977612 14.87352969 12 22 C8.6875 21.9375 8.6875 21.9375 5 21 C3.4599113 18.45088767 2.73869459 16.79871612 2 14 C1.79632813 13.24460938 1.59265625 12.48921875 1.3828125 11.7109375 C0.41895677 7.76309006 -0.26369875 4.0873307 0 0 Z " fill="#7D8C98" transform="translate(375,136)"/>
<path d="M0 0 C20.58263106 -0.46915407 35.07380881 0.56165077 53 11 C51 12 51 12 48.61474609 11.31494141 C47.63586426 10.95577637 46.65698242 10.59661133 45.6484375 10.2265625 C39.37608256 8.05097384 33.13922882 6.61298219 26.625 5.375 C25.540979 5.16335205 24.45695801 4.9517041 23.34008789 4.73364258 C15.58960685 3.24287576 7.83857236 1.93950688 0 1 C0 0.67 0 0.34 0 0 Z " fill="#8C9DA8" transform="translate(307,109)"/>
<path d="M0 0 C0.33 0 0.66 0 1 0 C1 1.65 1 3.3 1 5 C4.63 5 8.26 5 12 5 C12 5.99 12 6.98 12 8 C2.57130123 9.32368341 -6.55656618 8.71960516 -16 8 C-16 6.02 -16 4.04 -16 2 C-10.72 2 -5.44 2 0 2 C0 1.34 0 0.68 0 0 Z " fill="#485C69" transform="translate(240,174)"/>
<path d="M0 0 C0.33 0 0.66 0 1 0 C1.33 3.63 1.66 7.26 2 11 C2.66 10.01 3.32 9.02 4 8 C4.33 13.61 4.66 19.22 5 25 C4.34 25.33 3.68 25.66 3 26 C1.68 24.02 0.36 22.04 -1 20 C-1.66 20.99 -2.32 21.98 -3 23 C-3 22.01 -3 21.02 -3 20 C-3.99 19.67 -4.98 19.34 -6 19 C-5.01 19 -4.02 19 -3 19 C-3 17.35 -3 15.7 -3 14 C-2.01 13.67 -1.02 13.34 0 13 C0 8.71 0 4.42 0 0 Z M-2 24 C0.475 24.99 0.475 24.99 3 26 C3 28.31 3 30.62 3 33 C1.02 33 -0.96 33 -3 33 C-3.125 26.25 -3.125 26.25 -2 24 Z " fill="#0C2B36" transform="translate(260,171)"/>
<path d="M0 0 C1.32 0.33 2.64 0.66 4 1 C4.33 2.32 4.66 3.64 5 5 C4.34 4.67 3.68 4.34 3 4 C3.33 5.32 3.66 6.64 4 8 C4.66 7.67 5.32 7.34 6 7 C6.05441656 8.89551022 6.09298035 10.7914792 6.125 12.6875 C6.14820313 13.74324219 6.17140625 14.79898438 6.1953125 15.88671875 C5.99858729 19.02251859 5.33057654 21.17645373 4 24 C2.35 24 0.7 24 -1 24 C-2.125 21.1875 -2.125 21.1875 -3 18 C-2.01 16.515 -2.01 16.515 -1 15 C-1.35515029 12.15879766 -2.09349251 9.71952248 -3 7 C-2.01 7.33 -1.02 7.66 0 8 C0 5.36 0 2.72 0 0 Z " fill="#253B48" transform="translate(210,166)"/>
<path d="M0 0 C7.92 0 15.84 0 24 0 C24 0.99 24 1.98 24 3 C22.02 3 20.04 3 18 3 C18.33 5.31 18.66 7.62 19 10 C15.37673261 11.2077558 14.35853631 10.54311128 11 9 C11 8.34 11 7.68 11 7 C10.34 7 9.68 7 9 7 C9 6.34 9 5.68 9 5 C7.68 5 6.36 5 5 5 C4.34 4.01 3.68 3.02 3 2 C2.01 1.34 1.02 0.68 0 0 Z " fill="#29323F" transform="translate(357,133)"/>
<path d="M0 0 C1.46373047 0.01353516 1.46373047 0.01353516 2.95703125 0.02734375 C4.06111328 0.04474609 4.06111328 0.04474609 5.1875 0.0625 C5.1875 2.0425 5.1875 4.0225 5.1875 6.0625 C-1.90576321 7.78580907 -8.52218976 8.3119783 -15.8125 8.0625 C-11.93895914 1.37183852 -11.93895914 1.37183852 -8.55078125 0.44140625 C-5.66055033 0.04147415 -2.91646146 -0.03513809 0 0 Z " fill="#E40004" transform="translate(304.8125,136.9375)"/>
<path d="M0 0 C2.97 0 5.94 0 9 0 C10.59138085 4.17737474 11.21278058 7.53160785 11 12 C7.37 12 3.74 12 0 12 C0 8.04 0 4.08 0 0 Z " fill="#0E2431" transform="translate(140,116)"/>
<path d="M0 0 C1.03189453 0.0028299 2.06378906 0.00565979 3.12695312 0.00857544 C6.39725732 0.01969998 9.66727968 0.04479024 12.9375 0.0703125 C15.16536061 0.08035228 17.39322554 0.08947638 19.62109375 0.09765625 C25.05999071 0.11961395 30.49872521 0.1530139 35.9375 0.1953125 C35.9375 0.5253125 35.9375 0.8553125 35.9375 1.1953125 C34.24560547 1.27048096 34.24560547 1.27048096 32.51953125 1.34716797 C28.25489999 1.53835177 23.99069653 1.73799562 19.7265625 1.93994141 C17.89593652 2.02551163 16.06520778 2.10891647 14.234375 2.18994141 C-7.3073919 2.82715103 -7.3073919 2.82715103 -28.14453125 7.70703125 C-30.0625 8.1953125 -30.0625 8.1953125 -33.0625 7.1953125 C-30.89764843 6.39869577 -28.73051875 5.60826889 -26.5625 4.8203125 C-25.3559375 4.37945312 -24.149375 3.93859375 -22.90625 3.484375 C-15.05342087 0.79187703 -8.27683853 -0.08658311 0 0 Z " fill="#5A6C79" transform="translate(286.0625,107.8046875)"/>
<path d="M0 0 C0 3.3 0 6.6 0 10 C-1.98 9.01 -3.96 8.02 -6 7 C-4.7315625 8.299375 -4.7315625 8.299375 -3.4375 9.625 C-1.35220887 12.13682795 -1.00582032 12.70898405 -0.9375 16.125 C-2.11025257 19.29833049 -3.42857195 20.84331841 -6 23 C-7.22886899 19.31339303 -7.14560987 15.89937025 -7.125 12.0625 C-7.12886719 11.34642578 -7.13273437 10.63035156 -7.13671875 9.89257812 C-7.12315607 2.57551306 -7.12315607 2.57551306 -6 0 C-3 -1 -3 -1 0 0 Z " fill="#1D3542" transform="translate(271,173)"/>
<path d="M0 0 C1.48117801 0.28127421 2.95993249 0.57533732 4.4375 0.875 C5.67306641 1.11863281 5.67306641 1.11863281 6.93359375 1.3671875 C7.61550781 1.57601562 8.29742187 1.78484375 9 2 C9.33 2.66 9.66 3.32 10 4 C9.67 4.99 9.34 5.98 9 7 C7.68 7 6.36 7 5 7 C5.33 9.97 5.66 12.94 6 16 C4.02 16 2.04 16 0 16 C0 15.34 0 14.68 0 14 C-0.66 13.67 -1.32 13.34 -2 13 C-1.34 12.01 -0.68 11.02 0 10 C-0.33 9.401875 -0.66 8.80375 -1 8.1875 C-2 6 -2 6 -2 3 C-1.34 2.67 -0.68 2.34 0 2 C0 1.34 0 0.68 0 0 Z " fill="#39797D" transform="translate(267,208)"/>
<path d="M0 0 C0.61875 0.185625 1.2375 0.37125 1.875 0.5625 C4.04160178 1.23686176 4.04160178 1.23686176 6 0 C6 0.66 6 1.32 6 2 C12.6 2 19.2 2 26 2 C26 2.33 26 2.66 26 3 C18.85491998 4.60370533 12.16975996 5.17728369 4.84765625 4.97265625 C2.33937723 4.99674123 0.37974847 5.26027096 -2 6 C-2 6.66 -2 7.32 -2 8 C-3.43739513 8.02712066 -4.87493863 8.04645067 -6.3125 8.0625 C-7.51326172 8.07990234 -7.51326172 8.07990234 -8.73828125 8.09765625 C-11 8 -11 8 -14 7 C-14 6.01 -14 5.02 -14 4 C-9.02936879 3.08702692 -4.97063121 3.08702692 0 4 C0 2.68 0 1.36 0 0 Z " fill="#213341" transform="translate(284,142)"/>
<path d="M0 0 C2.3125 0.1875 2.3125 0.1875 5 1 C6.9375 3.3125 6.9375 3.3125 8 6 C7.1875 8.3125 7.1875 8.3125 6 10 C5.34 8.02 4.68 6.04 4 4 C4 4.69867188 4 5.39734375 4 6.1171875 C4 11.74479167 4 17.37239583 4 23 C3.67 22.34 3.34 21.68 3 21 C2.34 21 1.68 21 1 21 C0.731875 21.78375 0.46375 22.5675 0.1875 23.375 C-1 26 -1 26 -4 28 C-3.5229205 25.77362902 -3.0251508 24.04331527 -1.875 22.0625 C-0.69951574 19.29171566 -1.05808199 17.82575402 -2 15 C-3.49985609 13.33289654 -3.49985609 13.33289654 -5 12 C-5 11.34 -5 10.68 -5 10 C-2.525 10.99 -2.525 10.99 0 12 C0 11.38511719 0 10.77023438 0 10.13671875 C0 6.7578125 0 3.37890625 0 0 Z " fill="#2C4350" transform="translate(270,170)"/>
<path d="M0 0 C-1.04166667 1.79036458 -2.08333333 3.58072917 -3.125 5.37109375 C-4.07886962 6.83865039 -4.07886962 6.83865039 -4 8 C-4.85464844 8.04898438 -5.70929688 8.09796875 -6.58984375 8.1484375 C-7.69457031 8.22320312 -8.79929687 8.29796875 -9.9375 8.375 C-11.03964844 8.44460937 -12.14179688 8.51421875 -13.27734375 8.5859375 C-14.62505859 8.79089844 -14.62505859 8.79089844 -16 9 C-16.33 9.66 -16.66 10.32 -17 11 C-17.66 11 -18.32 11 -19 11 C-19.33 9.68 -19.66 8.36 -20 7 C-18.35 6.67 -16.7 6.34 -15 6 C-14.67 4.02 -14.34 2.04 -14 0 C-12.41773035 -0.19627391 -10.83410729 -0.38165538 -9.25 -0.5625 C-7.92742187 -0.71912109 -7.92742187 -0.71912109 -6.578125 -0.87890625 C-4.11567549 -0.99456676 -2.33461936 -0.73638695 0 0 Z " fill="#30434F" transform="translate(286,137)"/>
<path d="M0 0 C1.32 0.33 2.64 0.66 4 1 C4 2.65 4 4.3 4 6 C0.16714075 6.33893581 -3.66635091 6.67012787 -7.5 7 C-8.57765625 7.09539062 -9.6553125 7.19078125 -10.765625 7.2890625 C-16.53562244 7.78162326 -22.20923553 8.11244203 -28 8 C-27.67 6.35 -27.34 4.7 -27 3 C-17.84435229 2.65084394 -9.04039783 3.72958023 0 5 C0 3.35 0 1.7 0 0 Z " fill="#495C6A" transform="translate(252,183)"/>
<path d="M0 0 C1.32 0.33 2.64 0.66 4 1 C3.01 1.495 3.01 1.495 2 2 C2 4.64 2 7.28 2 10 C0.68 9.34 -0.64 8.68 -2 8 C-1.484375 8.53625 -0.96875 9.0725 -0.4375 9.625 C1 12 1 12 0.75 15.0625 C0 18 0 18 -1 21 C-0.67 21.99 -0.34 22.98 0 24 C2.50447516 25.21869929 2.50447516 25.21869929 5 26 C4.67 26.66 4.34 27.32 4 28 C2.35 28 0.7 28 -1 28 C-3.89452883 19.55762426 -4.35021655 11.88512349 -4 3 C-3.01 2.67 -2.02 2.34 -1 2 C-0.67 1.34 -0.34 0.68 0 0 Z " fill="#152C39" transform="translate(209,165)"/>
<path d="M0 0 C1.916588 -0.02712153 3.8332873 -0.04645097 5.75 -0.0625 C7.35101563 -0.07990234 7.35101563 -0.07990234 8.984375 -0.09765625 C11.53368501 -0.01510087 13.57933591 0.25382442 16 1 C16 1.99 16 2.98 16 4 C11.93150272 7.78791126 7.45485791 7.25039896 2.23046875 7.10546875 C1.49441406 7.07066406 0.75835937 7.03585938 0 7 C0 4.69 0 2.38 0 0 Z " fill="#08181D" transform="translate(140,106)"/>
<path d="M0 0 C0 0.66 0 1.32 0 2 C-2.32566781 3.16283391 -3.79257218 3.06494354 -6.375 3.125 C-9.8471043 3.41761562 -9.8471043 3.41761562 -12.41015625 5.5859375 C-13.35625031 7.34862225 -14.18447908 9.17323315 -15 11 C-15.99 11.495 -15.99 11.495 -17 12 C-17 11.34 -17 10.68 -17 10 C-17.99 10 -18.98 10 -20 10 C-20 11.32 -20 12.64 -20 14 C-22.31 14 -24.62 14 -27 14 C-26.34 13.01 -25.68 12.02 -25 11 C-24.01 11 -23.02 11 -22 11 C-21.731875 10.4225 -21.46375 9.845 -21.1875 9.25 C-19.47400512 6.00337811 -18.17592427 3.55095752 -14.765625 1.953125 C-9.67010659 0.52891178 -5.29259497 -0.34516924 0 0 Z " fill="#31424E" transform="translate(304,132)"/>
<path d="M0 0 C1.65 0 3.3 0 5 0 C6 1 6 1 6.0625 3.5625 C6.041875 4.366875 6.02125 5.17125 6 6 C7.2065625 5.7215625 7.2065625 5.7215625 8.4375 5.4375 C9.7059375 5.2209375 9.7059375 5.2209375 11 5 C12 6 12 6 12.0625 8.5625 C12.041875 9.366875 12.02125 10.17125 12 11 C10.02 11.33 8.04 11.66 6 12 C6 11.34 6 10.68 6 10 C4.02 10 2.04 10 0 10 C0 6.7 0 3.4 0 0 Z " fill="#526774" transform="translate(144,155)"/>
<path d="M0 0 C1.65 0 3.3 0 5 0 C7.05164237 3.46214649 7 4.59389235 7 9 C16.24 9 25.48 9 35 9 C34.34 6.36 33.68 3.72 33 1 C34.65 0.67 36.3 0.34 38 0 C37.34 3.3 36.68 6.6 36 10 C31.83766432 10.19875248 27.67788233 10.34335912 23.51220703 10.43945312 C22.09765497 10.47952725 20.68343111 10.53400895 19.27001953 10.60351562 C7.53554956 11.165844 7.53554956 11.165844 3.70019531 8.25390625 C1.66031258 5.60121924 0 3.41654693 0 0 Z " fill="#4A5A64" transform="translate(331,142)"/>
<path d="M0 0 C11.87147341 0.158864 23.72676533 0.68091875 35.5859375 1.23046875 C24.08188924 7.31814257 7.96822724 3.6045968 -4.4140625 2.23046875 C-2.4140625 0.23046875 -2.4140625 0.23046875 0 0 Z " fill="#0C1E2C" transform="translate(108.4140625,210.76953125)"/>
<path d="M0 0 C4.41665288 -0.02902168 8.83328123 -0.04680608 13.25 -0.0625 C15.13138672 -0.07506836 15.13138672 -0.07506836 17.05078125 -0.08789062 C18.85869141 -0.09272461 18.85869141 -0.09272461 20.703125 -0.09765625 C22.36843262 -0.10551147 22.36843262 -0.10551147 24.06738281 -0.11352539 C26.57157379 -0.01658493 28.6181156 0.26769724 31 1 C31 1.66 31 2.32 31 3 C26.90658501 3.02469575 22.81319879 3.04285793 18.71972656 3.05493164 C17.32681523 3.0599643 15.9339092 3.06679098 14.54101562 3.07543945 C12.54038754 3.08755152 10.53972112 3.09270412 8.5390625 3.09765625 C7.33459473 3.10289307 6.13012695 3.10812988 4.88916016 3.11352539 C2 3 2 3 0 2 C0 1.34 0 0.68 0 0 Z " fill="#687782" transform="translate(309,128)"/>
<path d="M0 0 C0.63604872 3.07624053 0.46956748 6.06306538 0.3125 9.1875 C0.27866211 10.4549707 0.27866211 10.4549707 0.24414062 11.74804688 C0.18524963 13.83278798 0.09556798 15.91661804 0 18 C-0.66 18 -1.32 18 -2 18 C-2 12.72 -2 7.44 -2 2 C-7.55810604 0.59276439 -7.55810604 0.59276439 -11 2 C-10.67 7.28 -10.34 12.56 -10 18 C-10.99 18 -11.98 18 -13 18 C-13.05407567 15.41638482 -13.093707 12.83390745 -13.125 10.25 C-13.14175781 9.52039063 -13.15851563 8.79078125 -13.17578125 8.0390625 C-13.24014196 0.95938486 -13.24014196 0.95938486 -11 -2 C-6.35632588 -3.54789137 -3.66464291 -3.2821381 0 0 Z " fill="#19555A" transform="translate(132,88)"/>
<path d="M0 0 C2.31 0 4.62 0 7 0 C8.125 3.75 8.125 3.75 7 6 C10.3 6 13.6 6 17 6 C17 6.66 17 7.32 17 8 C11.39 8 5.78 8 0 8 C0 5.36 0 2.72 0 0 Z " fill="#617480" transform="translate(140,129)"/>
<path d="M0 0 C7.59 0 15.18 0 23 0 C22.67 0.99 22.34 1.98 22 3 C19.36 3.33 16.72 3.66 14 4 C14 4.33 14 4.66 14 5 C7.73 5 1.46 5 -5 5 C-5 4.67 -5 4.34 -5 4 C-2.36 4 0.28 4 3 4 C1.68 3.34 0.36 2.68 -1 2 C-0.67 1.34 -0.34 0.68 0 0 Z " fill="#5B6C79" transform="translate(337,127)"/>
<path d="M0 0 C0.90878906 0.79470703 0.90878906 0.79470703 1.8359375 1.60546875 C1.8359375 2.59546875 1.8359375 3.58546875 1.8359375 4.60546875 C-0.8040625 4.60546875 -3.4440625 4.60546875 -6.1640625 4.60546875 C-6.1640625 4.27546875 -6.1640625 3.94546875 -6.1640625 3.60546875 C-4.5140625 3.27546875 -2.8640625 2.94546875 -1.1640625 2.60546875 C-7.54607634 -1.2573291 -11.63702712 -2.25814038 -19.1640625 -1.39453125 C-22.71717088 -0.24016234 -26.09160666 1.10875507 -29.51171875 2.609375 C-30.38699219 2.93808594 -31.26226562 3.26679687 -32.1640625 3.60546875 C-32.8240625 3.27546875 -33.4840625 2.94546875 -34.1640625 2.60546875 C-21.80329101 -3.79477261 -12.6446382 -7.87858227 0 0 Z " fill="#1E2F3D" transform="translate(280.1640625,117.39453125)"/>
<path d="M0 0 C-1.63921609 2.45882414 -2.47376163 3.54125433 -5 5 C-9.66057507 5.74949225 -14.2844461 5.92980908 -19 6 C-18.01 5.34 -17.02 4.68 -16 4 C-16.66 3.67 -17.32 3.34 -18 3 C-18 2.34 -18 1.68 -18 1 C-12.03325384 -0.32594359 -6.07416385 -0.0884587 0 0 Z " fill="#B4040D" transform="translate(335,136)"/>
<path d="M0 0 C1.44010481 0.25662245 2.8770687 0.53090821 4.3125 0.8125 C5.11300781 0.96332031 5.91351563 1.11414063 6.73828125 1.26953125 C9.28171425 2.09098543 10.36192805 2.91145827 12 5 C12.6875 7.6875 12.6875 7.6875 13 10 C5.57142857 10.14285714 5.57142857 10.14285714 2 9 C2.33 8.01 2.66 7.02 3 6 C3.99 6 4.98 6 6 6 C6 5.34 6 4.68 6 4 C3.69 3.34 1.38 2.68 -1 2 C-0.67 1.34 -0.34 0.68 0 0 Z " fill="#2F6168" transform="translate(174,211)"/>
<path d="M0 0 C2.64 0 5.28 0 8 0 C8 4.29 8 8.58 8 13 C6 12 6 12 5.125 10 C4.1765144 7.79994195 4.1765144 7.79994195 1.875 7.25 C1.25625 7.1675 0.6375 7.085 0 7 C0 4.69 0 2.38 0 0 Z " fill="#0F2432" transform="translate(144,147)"/>
<path d="M0 0 C0 1.32 0 2.64 0 4 C-0.66 4 -1.32 4 -2 4 C-2 3.34 -2 2.68 -2 2 C-15.2 2 -28.4 2 -42 2 C-42 2.66 -42 3.32 -42 4 C-43.96147874 5.38938077 -45.96166576 6.7260411 -48 8 C-46.125 2.125 -46.125 2.125 -45 1 C-43.29841627 0.84110239 -41.59056262 0.74859511 -39.8828125 0.68359375 C-38.27188721 0.6206311 -38.27188721 0.6206311 -36.62841797 0.55639648 C-35.47229004 0.51716064 -34.31616211 0.4779248 -33.125 0.4375 C-31.95727051 0.3950415 -30.78954102 0.35258301 -29.58642578 0.30883789 C-19.72102321 -0.02639424 -9.86966873 -0.1070205 0 0 Z " fill="#6F1B2D" transform="translate(338,134)"/>
<path d="M0 0 C0 5.61 0 11.22 0 17 C-3.1662089 13.8337911 -3.48067091 12.99910305 -4.1875 8.8125 C-4.34605469 7.91144531 -4.50460938 7.01039062 -4.66796875 6.08203125 C-4.77753906 5.39496094 -4.88710937 4.70789063 -5 4 C-5.99 3.67 -6.98 3.34 -8 3 C-2.25 0 -2.25 0 0 0 Z " fill="#1B2D39" transform="translate(156,110)"/>
<path d="M0 0 C3.63 0 7.26 0 11 0 C11.33 2.31 11.66 4.62 12 7 C8.37673261 8.2077558 7.35853631 7.54311128 4 6 C4 5.34 4 4.68 4 4 C3.34 4 2.68 4 2 4 C2 3.34 2 2.68 2 2 C1.34 2 0.68 2 0 2 C0 1.34 0 0.68 0 0 Z " fill="#A00D1A" transform="translate(364,136)"/>
<path d="M0 0 C1.98 0 3.96 0 6 0 C6 3.3 6 6.6 6 10 C4.02 10 2.04 10 0 10 C0 6.7 0 3.4 0 0 Z " fill="#185459" transform="translate(123,91)"/>
<path d="M0 0 C1.38226016 2.76452033 1.09525387 5.0461363 1.0625 8.125 C1.05347656 9.22070312 1.04445312 10.31640625 1.03515625 11.4453125 C1.02355469 12.28835937 1.01195312 13.13140625 1 14 C0.67 14 0.34 14 0 14 C0 12.02 0 10.04 0 8 C-0.78375 8.20625 -1.5675 8.4125 -2.375 8.625 C-3.24125 8.74875 -4.1075 8.8725 -5 9 C-5.66 8.34 -6.32 7.68 -7 7 C-6.8125 4.5 -6.8125 4.5 -6 2 C-3 0 -3 0 0 0 Z " fill="#28525B" transform="translate(157,176)"/>
<path d="M0 0 C0.66 0.33 1.32 0.66 2 1 C1.67 2.32 1.34 3.64 1 5 C0.01 5 -0.98 5 -2 5 C-2.12375 5.86625 -2.2475 6.7325 -2.375 7.625 C-2.98058121 10.89513853 -3.88306035 13.87256899 -5 17 C-5.33 17 -5.66 17 -6 17 C-6 12.38 -6 7.76 -6 3 C-4.02 2.01 -2.04 1.02 0 0 Z " fill="#071E2B" transform="translate(267,168)"/>
<path d="M0 0 C0 1.32 0 2.64 0 4 C-0.85464844 4.04898438 -1.70929688 4.09796875 -2.58984375 4.1484375 C-3.69457031 4.22320312 -4.79929687 4.29796875 -5.9375 4.375 C-7.03964844 4.44460937 -8.14179688 4.51421875 -9.27734375 4.5859375 C-10.62505859 4.79089844 -10.62505859 4.79089844 -12 5 C-12.33 5.66 -12.66 6.32 -13 7 C-13.66 7 -14.32 7 -15 7 C-15.33 5.68 -15.66 4.36 -16 3 C-5.62642369 -0.44419134 -5.62642369 -0.44419134 0 0 Z " fill="#45616D" transform="translate(282,141)"/>
<path d="M0 0 C5.61 0 11.22 0 17 0 C16.34 1.32 15.68 2.64 15 4 C8.25766581 4.12910853 1.69613196 3.797837 -5 3 C-5 2.67 -5 2.34 -5 2 C-3.35 1.67 -1.7 1.34 0 1 C0 0.67 0 0.34 0 0 Z " fill="#687984" transform="translate(346,128)"/>
<path d="M0 0 C2 0 2 0 3.4375 1.3125 C4.2109375 2.1478125 4.2109375 2.1478125 5 3 C5.556875 3.556875 6.11375 4.11375 6.6875 4.6875 C7.120625 5.120625 7.55375 5.55375 8 6 C7.01 6.495 7.01 6.495 6 7 C6.33 8.32 6.66 9.64 7 11 C5 12 5 12 2.921875 11.3828125 C1 10 1 10 0.390625 7.6171875 C0.34421875 6.71226562 0.2978125 5.80734375 0.25 4.875 C0.19328125 3.96492187 0.1365625 3.05484375 0.078125 2.1171875 C0.05234375 1.41851562 0.0265625 0.71984375 0 0 Z " fill="#3C6972" transform="translate(164,204)"/>
<path d="M0 0 C0.33 0 0.66 0 1 0 C1.74404547 5.76635243 2 11.17777159 2 17 C1.67 16.34 1.34 15.68 1 15 C0.34 15 -0.32 15 -1 15 C-1.4021875 16.175625 -1.4021875 16.175625 -1.8125 17.375 C-3 20 -3 20 -6 22 C-5.53802874 19.50535521 -4.94619812 17.91872482 -3.53125 15.78125 C-1.74223109 12.53180749 -1.29395529 9.85396722 -0.8125 6.1875 C-0.65394531 5.02605469 -0.49539063 3.86460937 -0.33203125 2.66796875 C-0.22246094 1.78753906 -0.11289062 0.90710938 0 0 Z " fill="#344A58" transform="translate(272,176)"/>
<path d="M0 0 C2.97 0.495 2.97 0.495 6 1 C6.66 2.98 7.32 4.96 8 7 C7 8 7 8 4.5625 8.25 C3.716875 8.1675 2.87125 8.085 2 8 C-0.1519437 4.77208445 -0.20086443 3.71599191 0 0 Z " fill="#E05B6E" transform="translate(375,136)"/>
<path d="M0 0 C1.32 0.33 2.64 0.66 4 1 C4.33 2.32 4.66 3.64 5 5 C4.34 4.67 3.68 4.34 3 4 C3.33 5.32 3.66 6.64 4 8 C4.66 7.67 5.32 7.34 6 7 C6 7.99 6 8.98 6 10 C4.68 10.33 3.36 10.66 2 11 C1.67 12.32 1.34 13.64 1 15 C1 13.68 1 12.36 1 11 C-0.32 10.34 -1.64 9.68 -3 9 C-3 8.34 -3 7.68 -3 7 C-2.01 7.33 -1.02 7.66 0 8 C0 5.36 0 2.72 0 0 Z " fill="#2B414E" transform="translate(210,166)"/>
<path d="M0 0 C0.66 0 1.32 0 2 0 C2 5.61 2 11.22 2 17 C1.67 16.34 1.34 15.68 1 15 C0.34 15 -0.32 15 -1 15 C-1.16276042 12.98177083 -1.32552083 10.96354167 -1.48828125 8.9453125 C-1.87393036 6.60480784 -1.87393036 6.60480784 -5 5 C-3.35 5 -1.7 5 0 5 C0 3.35 0 1.7 0 0 Z " fill="#2F4754" transform="translate(156,161)"/>
<path d="M0 0 C3.63 0 7.26 0 11 0 C9 4 9 4 7 5 C4.3276379 5.13415472 1.67749512 5.04318541 -1 5 C-0.67 3.35 -0.34 1.7 0 0 Z " fill="#495D6B" transform="translate(225,186)"/>
<path d="M0 0 C4.02550319 1.3418344 4.88285636 3.4227573 7 7 C7 7.66 7 8.32 7 9 C7.66 9 8.32 9 9 9 C8.67 10.32 8.34 11.64 8 13 C7.4225 12.649375 6.845 12.29875 6.25 11.9375 C3.64198224 10.85082593 2.60582371 11.06934867 0 12 C0 11.34 0 10.68 0 10 C0.66 9.67 1.32 9.34 2 9 C1.51515724 4.35413108 1.51515724 4.35413108 0 0 Z " fill="#435866" transform="translate(156,200)"/>
<path d="M0 0 C4.50727647 0.60266785 7.8587963 2.36599794 11.8125 4.5625 C12.7087207 5.0565332 12.7087207 5.0565332 13.62304688 5.56054688 C15.08533998 6.36773267 16.5431399 7.18304917 18 8 C16 9 16 9 13.35546875 8.2578125 C12.31003906 7.88398437 11.26460938 7.51015625 10.1875 7.125 C6.46487855 5.8024289 2.89546553 4.67684614 -1 4 C-0.34 3.67 0.32 3.34 1 3 C0.67 2.01 0.34 1.02 0 0 Z " fill="#8797A3" transform="translate(342,112)"/>
<path d="M0 0 C0.33 0.66 0.66 1.32 1 2 C7.6 2 14.2 2 21 2 C21 2.33 21 2.66 21 3 C13.2441657 4.70994772 5.93396732 5.24923458 -2 5 C-1.125 1.125 -1.125 1.125 0 0 Z " fill="#6E1E2E" transform="translate(289,142)"/>
<path d="M0 0 C2.97 0.495 2.97 0.495 6 1 C6 3.31 6 5.62 6 8 C5.01 8 4.02 8 3 8 C3 8.66 3 9.32 3 10 C3.66 10.33 4.32 10.66 5 11 C3.68 10.67 2.36 10.34 1 10 C0.67 6.7 0.34 3.4 0 0 Z " fill="#1F3542" transform="translate(343,189)"/>
<path d="M0 0 C1.32 0 2.64 0 4 0 C5.0625 1.8125 5.0625 1.8125 6 4 C5.67 4.99 5.34 5.98 5 7 C3.35 7 1.7 7 0 7 C-0.66 5.35 -1.32 3.7 -2 2 C-1.34 1.34 -0.68 0.68 0 0 Z " fill="#2F7C7D" transform="translate(232,220)"/>
<path d="M0 0 C0.66 0 1.32 0 2 0 C2.33 2.97 2.66 5.94 3 9 C-1 10 -1 10 -3 9 C-2.44271087 5.65626525 -1.64826111 2.96687001 0 0 Z " fill="#0F2633" transform="translate(271,191)"/>
<path d="M0 0 C0.66 0.33 1.32 0.66 2 1 C-0.56689829 4.13732013 -3.13509701 4.95250293 -7 6 C-10.6484375 6.1953125 -10.6484375 6.1953125 -14.375 6.125 C-15.62023437 6.10695312 -16.86546875 6.08890625 -18.1484375 6.0703125 C-19.55996094 6.03550781 -19.55996094 6.03550781 -21 6 C-21 5.67 -21 5.34 -21 5 C-20.15236084 4.87939209 -20.15236084 4.87939209 -19.28759766 4.75634766 C-16.73207398 4.38781812 -14.17860716 4.00657348 -11.625 3.625 C-10.73554688 3.49867188 -9.84609375 3.37234375 -8.9296875 3.2421875 C-8.07890625 3.11328125 -7.228125 2.984375 -6.3515625 2.8515625 C-5.56604004 2.73635254 -4.78051758 2.62114258 -3.97119141 2.50244141 C-1.782936 2.1233004 -1.782936 2.1233004 0 0 Z " fill="#6D1D2D" transform="translate(332,138)"/>
<path d="M0 0 C1.258125 -0.020625 2.51625 -0.04125 3.8125 -0.0625 C4.52019531 -0.07410156 5.22789062 -0.08570312 5.95703125 -0.09765625 C8 0 8 0 11 1 C11.66 4.3 12.32 7.6 13 11 C12.01 11.495 12.01 11.495 11 12 C10.34 8.7 9.68 5.4 9 2 C6.03 2 3.06 2 0 2 C0 1.34 0 0.68 0 0 Z " fill="#3E505C" transform="translate(140,113)"/>
<path d="M0 0 C0.625 1.875 0.625 1.875 1 4 C0.34 4.66 -0.32 5.32 -1 6 C-1.64767793 8.57061311 -1.64767793 8.57061311 -2 11 C-4.31 10.34 -6.62 9.68 -9 9 C-9 8.67 -9 8.34 -9 8 C-7.35 8 -5.7 8 -4 8 C-4 5.69 -4 3.38 -4 1 C-2.68 0.67 -1.36 0.34 0 0 Z " fill="#2A404D" transform="translate(358,189)"/>
<path d="M0 0 C5.94 0 11.88 0 18 0 C17.67 0.99 17.34 1.98 17 3 C14.72858891 2.88597936 12.45785448 2.75841495 10.1875 2.625 C8.92292969 2.55539063 7.65835937 2.48578125 6.35546875 2.4140625 C3 2 3 2 0 0 Z " fill="#455866" transform="translate(297,192)"/>
<path d="M0 0 C1.32 0 2.64 0 4 0 C4 0.66 4 1.32 4 2 C11.92 2 19.84 2 28 2 C28 2.33 28 2.66 28 3 C18.57130123 4.32368341 9.44343382 3.71960516 0 3 C0 2.01 0 1.02 0 0 Z " fill="#425563" transform="translate(224,179)"/>
<path d="M0 0 C2.31 0 4.62 0 7 0 C6.01 2.31 5.02 4.62 4 7 C2.35 6.67 0.7 6.34 -1 6 C-0.67 4.02 -0.34 2.04 0 0 Z " fill="#1C5A5F" transform="translate(214,222)"/>
<path d="M0 0 C1.79398884 0.25499841 3.58520875 0.52953814 5.375 0.8125 C6.87160156 1.03873047 6.87160156 1.03873047 8.3984375 1.26953125 C11 2 11 2 13 5 C9.37 5 5.74 5 2 5 C2 4.34 2 3.68 2 3 C1.01 3 0.02 3 -1 3 C-0.67 2.01 -0.34 1.02 0 0 Z " fill="#132A37" transform="translate(223,181)"/>
<path d="M0 0 C1.65 0 3.3 0 5 0 C6.85776765 3.13498292 7.20140476 5.37471432 7 9 C6.34 9 5.68 9 5 9 C3.7109375 7.5390625 3.7109375 7.5390625 2.375 5.625 C1.92898438 4.99851563 1.48296875 4.37203125 1.0234375 3.7265625 C0 2 0 2 0 0 Z " fill="#566673" transform="translate(331,142)"/>
<path d="M0 0 C-0.33 1.65 -0.66 3.3 -1 5 C-3.64 4.67 -6.28 4.34 -9 4 C-9 3.01 -9 2.02 -9 1 C-6.04335481 -0.4783226 -3.25770263 -0.06032783 0 0 Z " fill="#0F2532" transform="translate(223,138)"/>
<path d="M0 0 C3.63 0.33 7.26 0.66 11 1 C10.67 1.99 10.34 2.98 10 4 C6.04 4 2.08 4 -2 4 C-1.34 3.67 -0.68 3.34 0 3 C0 2.01 0 1.02 0 0 Z " fill="#0A2531" transform="translate(220,223)"/>
<path d="M0 0 C0.66 0.33 1.32 0.66 2 1 C2 4.3 2 7.6 2 11 C0.68 10.34 -0.64 9.68 -2 9 C-2.25 3.375 -2.25 3.375 0 0 Z " fill="#0E2532" transform="translate(269,172)"/>
<path d="M0 0 C0.66 0.33 1.32 0.66 2 1 C1.01 2.32 0.02 3.64 -1 5 C1.97 5 4.94 5 8 5 C6 7 6 7 3.3984375 7.1953125 C2.40070313 7.17210937 1.40296875 7.14890625 0.375 7.125 C-1.12933594 7.09792969 -1.12933594 7.09792969 -2.6640625 7.0703125 C-3.43492187 7.04710937 -4.20578125 7.02390625 -5 7 C-3.47793991 4.37098712 -2.15634036 2.15634036 0 0 Z " fill="#C2030C" transform="translate(294,138)"/>
<path d="M0 0 C0 0.66 0 1.32 0 2 C0.99 2.33 1.98 2.66 3 3 C-2.94 3.495 -2.94 3.495 -9 4 C-9.33 3.01 -9.66 2.02 -10 1 C-6.78548731 -0.60725635 -3.56387464 -0.05748185 0 0 Z " fill="#122634" transform="translate(266,223)"/>
<path d="M0 0 C0.94875 0.04125 1.8975 0.0825 2.875 0.125 C2.875 1.775 2.875 3.425 2.875 5.125 C0.895 5.125 -1.085 5.125 -3.125 5.125 C-3.125 4.465 -3.125 3.805 -3.125 3.125 C-3.785 2.795 -4.445 2.465 -5.125 2.125 C-3.125 0.125 -3.125 0.125 0 0 Z " fill="#308C8A" transform="translate(270.125,218.875)"/>
<path d="M0 0 C1.32 0.33 2.64 0.66 4 1 C4.80967438 3.91482778 5.21845993 5.46113217 4.0625 8.3125 C3.5365625 9.1478125 3.5365625 9.1478125 3 10 C2.34 10 1.68 10 1 10 C0.67 6.7 0.34 3.4 0 0 Z " fill="#0F2633" transform="translate(265,184)"/>
<path d="M0 0 C0.99 0.33 1.98 0.66 3 1 C3.29296875 7.0546875 3.29296875 7.0546875 3 9 C2.01 9.66 1.02 10.32 0 11 C-1.05404945 7.01803543 -0.84098656 4.01804691 0 0 Z " fill="#1A3441" transform="translate(152,167)"/>
<path d="M0 0 C0 4.62 0 9.24 0 14 C-0.33 13.34 -0.66 12.68 -1 12 C-1.66 11.67 -2.32 11.34 -3 11 C-2.67 7.7 -2.34 4.4 -2 1 C-3.65 1 -5.3 1 -7 1 C-7 0.67 -7 0.34 -7 0 C-2.25 -1.125 -2.25 -1.125 0 0 Z " fill="#45B8B1" transform="translate(131,90)"/>
<path d="M0 0 C0.99 0 1.98 0 3 0 C2.67 1.65 2.34 3.3 2 5 C-3.625 7.125 -3.625 7.125 -7 6 C-7 5.01 -7 4.02 -7 3 C-4.69 3.33 -2.38 3.66 0 4 C0 2.68 0 1.36 0 0 Z " fill="#132532" transform="translate(284,142)"/>
<path d="M0 0 C4.62 0 9.24 0 14 0 C14 0.66 14 1.32 14 2 C10.04 2 6.08 2 2 2 C2 2.66 2 3.32 2 4 C1.34 4 0.68 4 0 4 C0 2.68 0 1.36 0 0 Z " fill="#4D2737" transform="translate(362,134)"/>
<path d="M0 0 C2.0625 0.4375 2.0625 0.4375 4 1 C4 2.65 4 4.3 4 6 C2.02 6 0.04 6 -2 6 C-1.125 1.125 -1.125 1.125 0 0 Z " fill="#338787" transform="translate(251,220)"/>
<path d="M0 0 C2.4375 0.375 2.4375 0.375 5 1 C5.33 1.66 5.66 2.32 6 3 C5.34 3 4.68 3 4 3 C4.33 3.99 4.66 4.98 5 6 C3.35 6 1.7 6 0 6 C-1.125 2.25 -1.125 2.25 0 0 Z " fill="#34908E" transform="translate(198,218)"/>
<path d="M0 0 C1.32 0 2.64 0 4 0 C4.33 2.97 4.66 5.94 5 9 C4.01 9 3.02 9 2 9 C0.50178941 5.62902617 0 3.79557881 0 0 Z " fill="#1D303E" transform="translate(153,184)"/>
<path d="M0 0 C3.3 0 6.6 0 10 0 C10 0.99 10 1.98 10 3 C6.7 3 3.4 3 0 3 C0 2.01 0 1.02 0 0 Z " fill="#0F2634" transform="translate(238,224)"/>
<path d="M0 0 C0.99 0.33 1.98 0.66 3 1 C2.67 2.32 2.34 3.64 2 5 C2.66 5.33 3.32 5.66 4 6 C1.69 6 -0.62 6 -3 6 C-2.625 3.5625 -2.625 3.5625 -2 1 C-1.34 0.67 -0.68 0.34 0 0 Z " fill="#399694" transform="translate(159,194)"/>
<path d="M0 0 C1.65 0 3.3 0 5 0 C4.67 1.65 4.34 3.3 4 5 C2.68 5.33 1.36 5.66 0 6 C-1.125 2.25 -1.125 2.25 0 0 Z " fill="#31938F" transform="translate(151,178)"/>
<path d="M0 0 C1.32 0 2.64 0 4 0 C4 2.31 4 4.62 4 7 C2.68 7 1.36 7 0 7 C0 4.69 0 2.38 0 0 Z " fill="#2D8D8A" transform="translate(251,167)"/>
<path d="M0 0 C2.475 0.495 2.475 0.495 5 1 C4.67 2.65 4.34 4.3 4 6 C2.68 6 1.36 6 0 6 C0 4.02 0 2.04 0 0 Z " fill="#2B908C" transform="translate(254,152)"/>
<path d="M0 0 C1.41377341 2.63904371 2.37240135 5.07120629 3 8 C1.02 8 -0.96 8 -3 8 C-3.66 6.35 -4.32 4.7 -5 3 C-3.35 3 -1.7 3 0 3 C0 2.01 0 1.02 0 0 Z " fill="#213240" transform="translate(151,125)"/>
<path d="M0 0 C0.99 0.33 1.98 0.66 3 1 C3 2.32 3 3.64 3 5 C4.32 5 5.64 5 7 5 C7 5.99 7 6.98 7 8 C4.625 7.75 4.625 7.75 2 7 C0.2058242 4.43689172 0 3.16880694 0 0 Z " fill="#385F69" transform="translate(265,211)"/>
<path d="M0 0 C3.08669204 3.08669204 3.44855089 3.91927658 4 8 C2.02 8.99 2.02 8.99 0 10 C0 6.7 0 3.4 0 0 Z " fill="#112835" transform="translate(273,173)"/>
<path d="M0 0 C0.33 1.32 0.66 2.64 1 4 C1.66 4 2.32 4 3 4 C3 6.31 3 8.62 3 11 C2.34 11 1.68 11 1 11 C0.57682292 8.98177083 0.15364583 6.96354167 -0.26953125 4.9453125 C-0.92308838 2.62953451 -0.92308838 2.62953451 -4 1 C-2.68 0.67 -1.36 0.34 0 0 Z " fill="#5C4C5A" transform="translate(382,135)"/>
<path d="M0 0 C1.32 0.33 2.64 0.66 4 1 C4 3 4 3 1.625 5.5625 C-1 8 -1 8 -3 9 C-3 8.34 -3 7.68 -3 7 C-3.99 6.67 -4.98 6.34 -6 6 C-5.38125 5.938125 -4.7625 5.87625 -4.125 5.8125 C-1.72238859 5.171081 -1.72238859 5.171081 -0.75 2.4375 C-0.5025 1.633125 -0.255 0.82875 0 0 Z " fill="#304553" transform="translate(224,137)"/>
<path d="M0 0 C1.32 0.33 2.64 0.66 4 1 C4 2.65 4 4.3 4 6 C1.69 6 -0.62 6 -3 6 C-2.01 5.67 -1.02 5.34 0 5 C0 3.35 0 1.7 0 0 Z " fill="#2F938F" transform="translate(252,183)"/>
<path d="M0 0 C-0.66 2.97 -1.32 5.94 -2 9 C-2.66 9 -3.32 9 -4 9 C-4 6.36 -4 3.72 -4 1 C-2 0 -2 0 0 0 Z " fill="#132C39" transform="translate(256,158)"/>
<path d="M0 0 C3.465 1.485 3.465 1.485 7 3 C7 3.33 7 3.66 7 4 C2.05 4 -2.9 4 -8 4 C-8 3.67 -8 3.34 -8 3 C-5.36 3 -2.72 3 0 3 C0 2.01 0 1.02 0 0 Z " fill="#1B2C3A" transform="translate(368,124)"/>
<path d="M0 0 C-4.29 0 -8.58 0 -13 0 C-13 -0.66 -13 -1.32 -13 -2 C-7.48369572 -3.37907607 -5.07141251 -2.53570625 0 0 Z " fill="#3C505D" transform="translate(195,223)"/>
<path d="M0 0 C0.99 0.33 1.98 0.66 3 1 C3 1.66 3 2.32 3 3 C4.98 2.01 6.96 1.02 9 0 C9 0.99 9 1.98 9 3 C7.68 3.33 6.36 3.66 5 4 C4.67 5.32 4.34 6.64 4 8 C4 6.68 4 5.36 4 4 C2.68 3.34 1.36 2.68 0 2 C0 1.34 0 0.68 0 0 Z " fill="#324957" transform="translate(207,173)"/>
<path d="M0 0 C0 0.99 0 1.98 0 3 C-3.3 3 -6.6 3 -10 3 C-10 2.34 -10 1.68 -10 1 C-3.375 0 -3.375 0 0 0 Z " fill="#5BA6A6" transform="translate(154,162)"/>
<path d="M0 0 C-0.33 1.65 -0.66 3.3 -1 5 C-1.99 5 -2.98 5 -4 5 C-4 4.34 -4 3.68 -4 3 C-4.99 2.67 -5.98 2.34 -7 2 C-4 0 -4 0 0 0 Z " fill="#1D313D" transform="translate(272,138)"/>
<path d="M0 0 C0 1.65 0 3.3 0 5 C-1.98 5.33 -3.96 5.66 -6 6 C-6 5.34 -6 4.68 -6 4 C-4.68 4 -3.36 4 -2 4 C-2 3.01 -2 2.02 -2 1 C-3.32 1.33 -4.64 1.66 -6 2 C-6 1.34 -6 0.68 -6 0 C-3 -1 -3 -1 0 0 Z " fill="#297173" transform="translate(156,161)"/>
<path d="M0 0 C1.9375 0.8125 1.9375 0.8125 4 2 C4.33 2.99 4.66 3.98 5 5 C4.01 5 3.02 5 2 5 C2 5.66 2 6.32 2 7 C1.34 7 0.68 7 0 7 C0 5.68 0 4.36 0 3 C-0.66 2.67 -1.32 2.34 -2 2 C-1.34 2 -0.68 2 0 2 C0 1.34 0 0.68 0 0 Z " fill="#2F4A56" transform="translate(264,139)"/>
<path d="M0 0 C1.134375 0.020625 2.26875 0.04125 3.4375 0.0625 C2.1175 0.3925 0.7975 0.7225 -0.5625 1.0625 C-0.5625 1.7225 -0.5625 2.3825 -0.5625 3.0625 C-2.52397874 4.45188077 -4.52416576 5.7885411 -6.5625 7.0625 C-4.33277027 0.07601351 -4.33277027 0.07601351 0 0 Z " fill="#5A2A39" transform="translate(296.5625,134.9375)"/>
<path d="M0 0 C2 3.75 2 3.75 2 6 C1.01 6.33 0.02 6.66 -1 7 C-1 7.66 -1 8.32 -1 9 C-1.66 9 -2.32 9 -3 9 C-2.25 2.25 -2.25 2.25 0 0 Z " fill="#5E717D" transform="translate(253,118)"/>
<path d="M0 0 C2.875 -0.125 2.875 -0.125 6 0 C6.66 0.66 7.32 1.32 8 2 C7 3 7 3 3.4375 3.0625 C2.303125 3.041875 1.16875 3.02125 0 3 C0 2.01 0 1.02 0 0 Z " fill="#235A61" transform="translate(249,226)"/>
<path d="M0 0 C2.64 0.66 5.28 1.32 8 2 C7.01 2.495 7.01 2.495 6 3 C5.67 3.66 5.34 4.32 5 5 C3.02 4.34 1.04 3.68 -1 3 C-0.67 2.01 -0.34 1.02 0 0 Z " fill="#27525B" transform="translate(231,226)"/>
<path d="M0 0 C1.5 1.375 1.5 1.375 3 3 C3 3.66 3 4.32 3 5 C0.36 5.33 -2.28 5.66 -5 6 C-5 5.34 -5 4.68 -5 4 C-4.360625 3.71125 -3.72125 3.4225 -3.0625 3.125 C-0.84793921 2.17176549 -0.84793921 2.17176549 0 0 Z " fill="#334B58" transform="translate(278,218)"/>
<path d="M0 0 C1.65 0 3.3 0 5 0 C5 1.65 5 3.3 5 5 C3.68 4.67 2.36 4.34 1 4 C0.67 2.68 0.34 1.36 0 0 Z " fill="#2C9893" transform="translate(258,199)"/>
<path d="M0 0 C0.66 0 1.32 0 2 0 C2.66 2.97 3.32 5.94 4 9 C3.34 9 2.68 9 2 9 C1.67 9.66 1.34 10.32 1 11 C-0.17571451 7.32589215 -0.07366746 3.83070817 0 0 Z " fill="#465866" transform="translate(204,183)"/>
<path d="M0 0 C1.42944945 2.35438733 2.08661261 3.48032433 1.625 6.25 C1.41875 6.8275 1.2125 7.405 1 8 C0.01 7.67 -0.98 7.34 -2 7 C-1.125 2.25 -1.125 2.25 0 0 Z " fill="#122935" transform="translate(211,181)"/>
<path d="M0 0 C0.33 0.66 0.66 1.32 1 2 C3.31 2 5.62 2 8 2 C7.67 2.66 7.34 3.32 7 4 C4.93359375 4.4140625 4.93359375 4.4140625 2.4375 4.625 C1.61121094 4.69976562 0.78492188 4.77453125 -0.06640625 4.8515625 C-1.02353516 4.92503906 -1.02353516 4.92503906 -2 5 C-1.34 3.35 -0.68 1.7 0 0 Z " fill="#353442" transform="translate(286,145)"/>
<path d="M0 0 C0.33 0 0.66 0 1 0 C1 1.98 1 3.96 1 6 C-2.45925163 4.7508258 -5.14693203 3.32472205 -8 1 C-6.865625 1.020625 -5.73125 1.04125 -4.5625 1.0625 C-1.18424326 1.41577477 -1.18424326 1.41577477 0 0 Z " fill="#BEC5C9" transform="translate(364,144)"/>
<path d="M0 0 C1.27875 -0.061875 2.5575 -0.12375 3.875 -0.1875 C4.95394531 -0.23970703 4.95394531 -0.23970703 6.0546875 -0.29296875 C6.69664062 -0.19628906 7.33859375 -0.09960938 8 0 C8.66 0.99 9.32 1.98 10 3 C6.7 3 3.4 3 0 3 C0 2.01 0 1.02 0 0 Z " fill="#6B7A87" transform="translate(370,129)"/>
<path d="M0 0 C2.475 0.495 2.475 0.495 5 1 C4.67 2.32 4.34 3.64 4 5 C3.01 5 2.02 5 1 5 C0.67 3.35 0.34 1.7 0 0 Z " fill="#37A7A1" transform="translate(181,215)"/>
<path d="M0 0 C1.65 0 3.3 0 5 0 C5.33 0.99 5.66 1.98 6 3 C4.02 3.33 2.04 3.66 0 4 C0 2.68 0 1.36 0 0 Z " fill="#3CA29E" transform="translate(166,208)"/>
<path d="M0 0 C1.04005702 3.38018531 1.08004482 6.4780279 1 10 C0.34 9.67 -0.32 9.34 -1 9 C-1 7.02 -1 5.04 -1 3 C-1.66 3 -2.32 3 -3 3 C-3 2.34 -3 1.68 -3 1 C-2.01 0.67 -1.02 0.34 0 0 Z " fill="#162C39" transform="translate(151,150)"/>
<path d="M0 0 C2.31 0 4.62 0 7 0 C6.67 0.99 6.34 1.98 6 3 C5.34 3 4.68 3 4 3 C3.67 3.99 3.34 4.98 3 6 C2.01 5.34 1.02 4.68 0 4 C0 2.68 0 1.36 0 0 Z " fill="#888390" transform="translate(376,143)"/>
<path d="M0 0 C1 3 1 3 0 6 C-0.99 6.33 -1.98 6.66 -3 7 C-3.33 5.02 -3.66 3.04 -4 1 C-2.68 0.67 -1.36 0.34 0 0 Z " fill="#576774" transform="translate(368,142)"/>
<path d="M0 0 C0.66 0 1.32 0 2 0 C1.67 1.32 1.34 2.64 1 4 C0.67 2.68 0.34 1.36 0 0 Z M-4 4 C-1.8125 4.3125 -1.8125 4.3125 0 5 C-2.375 6.5625 -2.375 6.5625 -5 8 C-5.66 7.67 -6.32 7.34 -7 7 C-5.75 5.4375 -5.75 5.4375 -4 4 Z " fill="#43313F" transform="translate(338,134)"/>
<path d="M0 0 C2.88437779 1.29299694 4.87219421 2.65941363 7 5 C6 6 6 6 4.15234375 6.09765625 C2.1015625 6.06510417 0.05078125 6.03255208 -2 6 C-2 5.67 -2 5.34 -2 5 C-0.35 4.67 1.3 4.34 3 4 C2.01 2.68 1.02 1.36 0 0 Z " fill="#223845" transform="translate(276,116)"/>
<path d="M0 0 C2.64 0 5.28 0 8 0 C8 0.99 8 1.98 8 3 C5.36 2.67 2.72 2.34 0 2 C0 1.34 0 0.68 0 0 Z " fill="#98A9B4" transform="translate(324,110)"/>
<path d="M0 0 C4.455 0.99 4.455 0.99 9 2 C8.01 2.66 7.02 3.32 6 4 C2.3125 3.125 2.3125 3.125 -1 2 C-0.67 1.34 -0.34 0.68 0 0 Z " fill="#3E5664" transform="translate(174,211)"/>
<path d="M0 0 C2 2 2 2 2 6 C-0.31 5.34 -2.62 4.68 -5 4 C-5 3.67 -5 3.34 -5 3 C-3.35 3 -1.7 3 0 3 C0 2.01 0 1.02 0 0 Z " fill="#223A47" transform="translate(354,194)"/>
<path d="M0 0 C2.0625 0.4375 2.0625 0.4375 4 1 C3.34 2.98 2.68 4.96 2 7 C1.34 6.67 0.68 6.34 0 6 C-0.6875 3.5 -0.6875 3.5 -1 1 C-0.67 0.67 -0.34 0.34 0 0 Z " fill="#26545C" transform="translate(154,193)"/>
<path d="M0 0 C2.31 0 4.62 0 7 0 C7 0.99 7 1.98 7 3 C4.36 2.67 1.72 2.34 -1 2 C-0.67 1.34 -0.34 0.68 0 0 Z " fill="#0F212E" transform="translate(241,184)"/>
<path d="M0 0 C1.32 0 2.64 0 4 0 C4 1.32 4 2.64 4 4 C1.69 4 -0.62 4 -3 4 C-2.01 3.67 -1.02 3.34 0 3 C0 2.01 0 1.02 0 0 Z " fill="#11303B" transform="translate(248,184)"/>
<path d="M0 0 C7.75 0.75 7.75 0.75 10 3 C8.5199159 2.88637738 7.04089926 2.75877092 5.5625 2.625 C4.73878906 2.55539063 3.91507813 2.48578125 3.06640625 2.4140625 C2.38449219 2.27742187 1.70257813 2.14078125 1 2 C0.67 1.34 0.34 0.68 0 0 Z " fill="#102632" transform="translate(186,218)"/>
<path d="M0 0 C-2.35968744 2.09749995 -3.54616994 2.96905704 -6.75 3.1875 C-7.86375 3.0946875 -7.86375 3.0946875 -9 3 C-9 2.34 -9 1.68 -9 1 C-6.04335481 -0.4783226 -3.25770263 -0.06032783 0 0 Z " fill="#475766" transform="translate(147,213)"/>
<path d="M0 0 C0.99 0.33 1.98 0.66 3 1 C3.6875 3.0625 3.6875 3.0625 4 5 C4.66 5 5.32 5 6 5 C6 5.99 6 6.98 6 8 C5.34 8 4.68 8 4 8 C0 2.58823529 0 2.58823529 0 0 Z " fill="#152C39" transform="translate(159,201)"/>
<path d="M0 0 C2.31 0 4.62 0 7 0 C6.01 0.495 6.01 0.495 5 1 C5 1.66 5 2.32 5 3 C3.35 3 1.7 3 0 3 C0 2.01 0 1.02 0 0 Z " fill="#37AAA3" transform="translate(214,222)"/>
<path d="M0 0 C1.15941038 3.47823115 0.70820884 5.45895578 0 9 C-0.99 9.33 -1.98 9.66 -3 10 C-2.49287967 6.28111761 -1.88391785 3.26545761 0 0 Z " fill="#4A5C6A" transform="translate(387,178)"/>
<path d="M0 0 C0.33 0.99 0.66 1.98 1 3 C-0.65 4.65 -2.3 6.3 -4 8 C-4 7.34 -4 6.68 -4 6 C-4.66 5.67 -5.32 5.34 -6 5 C-4.68 5 -3.36 5 -2 5 C-1.855625 4.360625 -1.71125 3.72125 -1.5625 3.0625 C-1 1 -1 1 0 0 Z " fill="#363846" transform="translate(291,136)"/>
<path d="M0 0 C4.10801767 1.18676066 5.89448334 1.89448334 9 5 C5.7 4.01 2.4 3.02 -1 2 C-0.67 1.34 -0.34 0.68 0 0 Z " fill="#748591" transform="translate(351,116)"/>
</svg>
